<?xml version="1.0" encoding="UTF-8" standalone="no"?>
<!-- Created with Inkscape (http://www.inkscape.org/) -->

<svg
   sodipodi:docname="Rainbow_Angles_Zoomed.svg"
   inkscape:version="1.1.2 (0a00cf5339, 2022-02-04)"
   version="1.1"
   id="svg2"
   viewBox="0 0 115.57777 90.196242"
   height="25.455391mm"
   width="32.618641mm"
   xmlns:inkscape="http://www.inkscape.org/namespaces/inkscape"
   xmlns:sodipodi="http://sodipodi.sourceforge.net/DTD/sodipodi-0.dtd"
   xmlns:xlink="http://www.w3.org/1999/xlink"
   xmlns="http://www.w3.org/2000/svg"
   xmlns:svg="http://www.w3.org/2000/svg"
   xmlns:rdf="http://www.w3.org/1999/02/22-rdf-syntax-ns#"
   xmlns:cc="http://creativecommons.org/ns#"
   xmlns:dc="http://purl.org/dc/elements/1.1/">
  <defs
     id="defs4">
    <marker
       style="overflow:visible"
       id="marker5529"
       refX="0"
       refY="0"
       orient="auto"
       inkscape:stockid="Arrow1Mend"
       inkscape:isstock="true">
      <path
         transform="matrix(-0.4,0,0,-0.4,-4,0)"
         style="fill:context-stroke;fill-rule:evenodd;stroke:context-stroke;stroke-width:1pt"
         d="M 0,0 5,-5 -12.5,0 5,5 Z"
         id="path5277" />
    </marker>
    <marker
       inkscape:stockid="Arrow1Mstart"
       orient="auto"
       refY="0"
       refX="0"
       id="marker13084"
       style="overflow:visible"
       inkscape:isstock="true">
      <path
         id="path13086"
         d="M 0,0 5,-5 -12.5,0 5,5 Z"
         style="fill:#00b4e1;fill-opacity:1;fill-rule:evenodd;stroke:#00b4e1;stroke-width:1pt;stroke-opacity:1"
         transform="matrix(0.4,0,0,0.4,4,0)" />
    </marker>
    <marker
       inkscape:stockid="Arrow1Mend"
       orient="auto"
       refY="0"
       refX="0"
       id="Arrow1Mend"
       style="overflow:visible"
       inkscape:isstock="true">
      <path
         id="path12275"
         d="M 0,0 5,-5 -12.5,0 5,5 Z"
         style="fill:#ff0000;fill-opacity:1;fill-rule:evenodd;stroke:#ff0000;stroke-width:1pt;stroke-opacity:1"
         transform="matrix(-0.4,0,0,-0.4,-4,0)" />
    </marker>
    <marker
       inkscape:stockid="Arrow2Lend"
       orient="auto"
       refY="0"
       refX="0"
       id="marker12767"
       style="overflow:visible"
       inkscape:isstock="true">
      <path
         id="path12287"
         style="fill:#ff0000;fill-opacity:1;fill-rule:evenodd;stroke:#ff0000;stroke-width:0.625;stroke-linejoin:round;stroke-opacity:1"
         d="M 8.7185878,4.0337352 -2.2072895,0.01601326 8.7185884,-4.0017078 c -1.7454984,2.3720609 -1.7354408,5.6174519 -6e-7,8.035443 z"
         transform="matrix(-1.1,0,0,-1.1,-1.1,0)" />
    </marker>
    <marker
       inkscape:stockid="Arrow1Mstart"
       orient="auto"
       refY="0"
       refX="0"
       id="Arrow1Mstart"
       style="overflow:visible"
       inkscape:isstock="true">
      <path
         id="path12272"
         d="M 0,0 5,-5 -12.5,0 5,5 Z"
         style="fill:#007ee1;fill-opacity:1;fill-rule:evenodd;stroke:#000000;stroke-width:1pt;stroke-opacity:1"
         transform="matrix(0.4,0,0,0.4,4,0)" />
    </marker>
    <marker
       inkscape:stockid="Arrow1Lstart"
       orient="auto"
       refY="0"
       refX="0"
       id="marker12522"
       style="overflow:visible"
       inkscape:isstock="true">
      <path
         id="path12266"
         d="M 0,0 5,-5 -12.5,0 5,5 Z"
         style="fill:#007ee1;fill-opacity:1;fill-rule:evenodd;stroke:#007ee1;stroke-width:1pt;stroke-opacity:1"
         transform="matrix(0.8,0,0,0.8,10,0)" />
    </marker>
    <marker
       inkscape:isstock="true"
       style="overflow:visible"
       id="marker12138"
       refX="0"
       refY="0"
       orient="auto"
       inkscape:stockid="Arrow2Lend">
      <path
         transform="matrix(-1.1,0,0,-1.1,-1.1,0)"
         d="M 8.7185878,4.0337352 -2.2072895,0.01601326 8.7185884,-4.0017078 c -1.7454984,2.3720609 -1.7354408,5.6174519 -6e-7,8.035443 z"
         style="fill:#007ee1;fill-opacity:1;fill-rule:evenodd;stroke:#007ee1;stroke-width:0.625;stroke-linejoin:round;stroke-opacity:1"
         id="path12140"
         inkscape:connector-curvature="0" />
    </marker>
    <marker
       inkscape:isstock="true"
       style="overflow:visible"
       id="marker12002"
       refX="0"
       refY="0"
       orient="auto"
       inkscape:stockid="Arrow1Lstart">
      <path
         transform="matrix(0.8,0,0,0.8,10,0)"
         style="fill:#007ee1;fill-opacity:1;fill-rule:evenodd;stroke:#007ee1;stroke-width:1pt;stroke-opacity:1"
         d="M 0,0 5,-5 -12.5,0 5,5 Z"
         id="path12004"
         inkscape:connector-curvature="0" />
    </marker>
    <marker
       inkscape:stockid="Arrow1Lstart"
       orient="auto"
       refY="0"
       refX="0"
       id="marker8391"
       style="overflow:visible"
       inkscape:isstock="true">
      <path
         id="path8393"
         d="M 0,0 5,-5 -12.5,0 5,5 Z"
         style="fill:#007ee1;fill-opacity:1;fill-rule:evenodd;stroke:#007ee1;stroke-width:1pt;stroke-opacity:1"
         transform="matrix(0.8,0,0,0.8,10,0)" />
    </marker>
    <marker
       inkscape:stockid="Arrow2Lend"
       orient="auto"
       refY="0"
       refX="0"
       id="Arrow2Lend"
       style="overflow:visible"
       inkscape:isstock="true">
      <path
         id="path4188"
         style="fill:#ff0000;fill-opacity:1;fill-rule:evenodd;stroke:#ff0000;stroke-width:0.625;stroke-linejoin:round;stroke-opacity:1"
         d="M 8.7185878,4.0337352 -2.2072895,0.01601326 8.7185884,-4.0017078 c -1.7454984,2.3720609 -1.7354408,5.6174519 -6e-7,8.035443 z"
         transform="matrix(-1.1,0,0,-1.1,-1.1,0)" />
    </marker>
    <marker
       inkscape:stockid="Arrow1Lend"
       orient="auto"
       refY="0"
       refX="0"
       id="Arrow1Lend"
       style="overflow:visible"
       inkscape:isstock="true">
      <path
         id="path4170"
         d="M 0,0 5,-5 -12.5,0 5,5 Z"
         style="fill:#ff0000;fill-opacity:1;fill-rule:evenodd;stroke:#ff0000;stroke-width:1pt;stroke-opacity:1"
         transform="matrix(-0.8,0,0,-0.8,-10,0)" />
    </marker>
    <marker
       inkscape:stockid="Arrow1Lstart"
       orient="auto"
       refY="0"
       refX="0"
       id="Arrow1Lstart"
       style="overflow:visible"
       inkscape:isstock="true">
      <path
         id="path4167"
         d="M 0,0 5,-5 -12.5,0 5,5 Z"
         style="fill:#000000;fill-opacity:1;fill-rule:evenodd;stroke:#000000;stroke-width:1pt;stroke-opacity:1"
         transform="matrix(0.8,0,0,0.8,10,0)" />
    </marker>
    <linearGradient
       id="linearGradient4300"
       inkscape:swatch="solid">
      <stop
         style="stop-color:#650000;stop-opacity:1;"
         offset="0"
         id="stop4302" />
    </linearGradient>
    <marker
       inkscape:stockid="Arrow2Lend"
       orient="auto"
       refY="0"
       refX="0"
       id="Arrow2Lend-6"
       style="overflow:visible"
       inkscape:isstock="true">
      <path
         inkscape:connector-curvature="0"
         id="path4188-7"
         style="fill:#ff0000;fill-opacity:1;fill-rule:evenodd;stroke:#ff0000;stroke-width:0.625;stroke-linejoin:round;stroke-opacity:1"
         d="M 8.7185878,4.0337352 -2.2072895,0.01601326 8.7185884,-4.0017078 c -1.7454984,2.3720609 -1.7354408,5.6174519 -6e-7,8.035443 z"
         transform="matrix(-1.1,0,0,-1.1,-1.1,0)" />
    </marker>
    <marker
       inkscape:stockid="Arrow2Lend"
       orient="auto"
       refY="0"
       refX="0"
       id="Arrow2Lend-6-3"
       style="overflow:visible"
       inkscape:isstock="true">
      <path
         inkscape:connector-curvature="0"
         id="path4188-7-5"
         style="fill:#ff0000;fill-opacity:1;fill-rule:evenodd;stroke:#ff0000;stroke-width:0.625;stroke-linejoin:round;stroke-opacity:1"
         d="M 8.7185878,4.0337352 -2.2072895,0.01601326 8.7185884,-4.0017078 c -1.7454984,2.3720609 -1.7354408,5.6174519 -6e-7,8.035443 z"
         transform="matrix(-1.1,0,0,-1.1,-1.1,0)" />
    </marker>
    <marker
       inkscape:stockid="Arrow2Lend"
       orient="auto"
       refY="0"
       refX="0"
       id="Arrow2Lend-6-3-9"
       style="overflow:visible"
       inkscape:isstock="true">
      <path
         inkscape:connector-curvature="0"
         id="path4188-7-5-1"
         style="fill:#007ee1;fill-opacity:1;fill-rule:evenodd;stroke:#007ee1;stroke-width:0.625;stroke-linejoin:round;stroke-opacity:1"
         d="M 8.7185878,4.0337352 -2.2072895,0.01601326 8.7185884,-4.0017078 c -1.7454984,2.3720609 -1.7354408,5.6174519 -6e-7,8.035443 z"
         transform="matrix(-1.1,0,0,-1.1,-1.1,0)" />
    </marker>
    <marker
       inkscape:stockid="Arrow1Lstart"
       orient="auto"
       refY="0"
       refX="0"
       id="marker8391-9"
       style="overflow:visible"
       inkscape:isstock="true">
      <path
         inkscape:connector-curvature="0"
         id="path8393-3"
         d="M 0,0 5,-5 -12.5,0 5,5 Z"
         style="fill:#007ee1;fill-opacity:1;fill-rule:evenodd;stroke:#007ee1;stroke-width:1pt;stroke-opacity:1"
         transform="matrix(0.8,0,0,0.8,10,0)" />
    </marker>
    <marker
       inkscape:stockid="Arrow2Lend"
       orient="auto"
       refY="0"
       refX="0"
       id="Arrow2Lend-6-6"
       style="overflow:visible"
       inkscape:isstock="true">
      <path
         inkscape:connector-curvature="0"
         id="path4188-7-2"
         style="fill:#ff0000;fill-opacity:1;fill-rule:evenodd;stroke:#ff0000;stroke-width:0.625;stroke-linejoin:round;stroke-opacity:1"
         d="M 8.7185878,4.0337352 -2.2072895,0.01601326 8.7185884,-4.0017078 c -1.7454984,2.3720609 -1.7354408,5.6174519 -6e-7,8.035443 z"
         transform="matrix(-1.1,0,0,-1.1,-1.1,0)" />
    </marker>
    <marker
       inkscape:stockid="Arrow1Lstart"
       orient="auto"
       refY="0"
       refX="0"
       id="marker8391-6"
       style="overflow:visible"
       inkscape:isstock="true">
      <path
         inkscape:connector-curvature="0"
         id="path8393-1"
         d="M 0,0 5,-5 -12.5,0 5,5 Z"
         style="fill:#007ee1;fill-opacity:1;fill-rule:evenodd;stroke:#007ee1;stroke-width:1pt;stroke-opacity:1"
         transform="matrix(0.8,0,0,0.8,10,0)" />
    </marker>
    <marker
       inkscape:stockid="Arrow2Lend"
       orient="auto"
       refY="0"
       refX="0"
       id="Arrow2Lend-6-7-9"
       style="overflow:visible"
       inkscape:isstock="true">
      <path
         inkscape:connector-curvature="0"
         id="path4188-7-0-2"
         style="fill:#ff0000;fill-opacity:1;fill-rule:evenodd;stroke:#ff0000;stroke-width:0.625;stroke-linejoin:round;stroke-opacity:1"
         d="M 8.7185878,4.0337352 -2.2072895,0.01601326 8.7185884,-4.0017078 c -1.7454984,2.3720609 -1.7354408,5.6174519 -6e-7,8.035443 z"
         transform="matrix(-1.1,0,0,-1.1,-1.1,0)" />
    </marker>
    <marker
       inkscape:stockid="Arrow1Lstart"
       orient="auto"
       refY="0"
       refX="0"
       id="marker8391-9-0"
       style="overflow:visible"
       inkscape:isstock="true">
      <path
         inkscape:connector-curvature="0"
         id="path8393-3-2"
         d="M 0,0 5,-5 -12.5,0 5,5 Z"
         style="fill:#007ee1;fill-opacity:1;fill-rule:evenodd;stroke:#007ee1;stroke-width:1pt;stroke-opacity:1"
         transform="matrix(0.8,0,0,0.8,10,0)" />
    </marker>
    <marker
       inkscape:stockid="Arrow1Mend"
       orient="auto"
       refY="0"
       refX="0"
       id="Arrow1Mend-1"
       style="overflow:visible"
       inkscape:isstock="true">
      <path
         inkscape:connector-curvature="0"
         id="path12275-9"
         d="M 0,0 5,-5 -12.5,0 5,5 Z"
         style="fill:#ffa000;fill-opacity:1;fill-rule:evenodd;stroke:#ffa000;stroke-width:1pt;stroke-opacity:1"
         transform="matrix(-0.4,0,0,-0.4,-4,0)" />
    </marker>
    <marker
       inkscape:stockid="Arrow1Mend"
       orient="auto"
       refY="0"
       refX="0"
       id="Arrow1Mend-3"
       style="overflow:visible"
       inkscape:isstock="true">
      <path
         inkscape:connector-curvature="0"
         id="path12275-5"
         d="M 0,0 5,-5 -12.5,0 5,5 Z"
         style="fill:#ff0000;fill-opacity:1;fill-rule:evenodd;stroke:#ff0000;stroke-width:1pt;stroke-opacity:1"
         transform="matrix(-0.4,0,0,-0.4,-4,0)" />
    </marker>
    <marker
       inkscape:stockid="Arrow1Mend"
       orient="auto"
       refY="0"
       refX="0"
       id="Arrow1Mend-2"
       style="overflow:visible"
       inkscape:isstock="true">
      <path
         inkscape:connector-curvature="0"
         id="path12275-91"
         d="M 0,0 5,-5 -12.5,0 5,5 Z"
         style="fill:#ff0000;fill-opacity:1;fill-rule:evenodd;stroke:#ff0000;stroke-width:1pt;stroke-opacity:1"
         transform="matrix(-0.4,0,0,-0.4,-4,0)" />
    </marker>
    <marker
       inkscape:stockid="Arrow1Mend"
       orient="auto"
       refY="0"
       refX="0"
       id="Arrow1Mend-7"
       style="overflow:visible"
       inkscape:isstock="true">
      <path
         inkscape:connector-curvature="0"
         id="path12275-0"
         d="M 0,0 5,-5 -12.5,0 5,5 Z"
         style="fill:#000000;fill-opacity:1;fill-rule:evenodd;stroke:none;stroke-width:1pt;stroke-opacity:1"
         transform="matrix(-0.4,0,0,-0.4,-4,0)" />
    </marker>
    <marker
       inkscape:stockid="Arrow1Mend"
       orient="auto"
       refY="0"
       refX="0"
       id="Arrow1Mend-36"
       style="overflow:visible"
       inkscape:isstock="true">
      <path
         inkscape:connector-curvature="0"
         id="path12275-06"
         d="M 0,0 5,-5 -12.5,0 5,5 Z"
         style="fill:#ffa000;fill-opacity:1;fill-rule:evenodd;stroke:#ffa000;stroke-width:1pt;stroke-opacity:1"
         transform="matrix(-0.4,0,0,-0.4,-4,0)" />
    </marker>
    <marker
       inkscape:stockid="Arrow1Mstart"
       orient="auto"
       refY="0"
       refX="0"
       id="marker13084-3"
       style="overflow:visible"
       inkscape:isstock="true">
      <path
         inkscape:connector-curvature="0"
         id="path13086-6"
         d="M 0,0 5,-5 -12.5,0 5,5 Z"
         style="fill:#007ee1;fill-opacity:1;fill-rule:evenodd;stroke:#007ee1;stroke-width:1pt;stroke-opacity:1"
         transform="matrix(0.4,0,0,0.4,4,0)" />
    </marker>
    <marker
       inkscape:stockid="Arrow1Mend"
       orient="auto"
       refY="0"
       refX="0"
       id="Arrow1Mend-367"
       style="overflow:visible"
       inkscape:isstock="true">
      <path
         id="path12275-53"
         d="M 0,0 5,-5 -12.5,0 5,5 Z"
         style="fill:#ff0000;fill-opacity:1;fill-rule:evenodd;stroke:#ff0000;stroke-width:1pt;stroke-opacity:1"
         transform="matrix(-0.4,0,0,-0.4,-4,0)" />
    </marker>
    <marker
       inkscape:stockid="Arrow1Mend"
       orient="auto"
       refY="0"
       refX="0"
       id="Arrow1Mend-9"
       style="overflow:visible"
       inkscape:isstock="true">
      <path
         id="path12275-2"
         d="M 0,0 5,-5 -12.5,0 5,5 Z"
         style="fill:#ff0000;fill-opacity:1;fill-rule:evenodd;stroke:#ff0000;stroke-width:1pt;stroke-opacity:1"
         transform="matrix(-0.4,0,0,-0.4,-4,0)" />
    </marker>
    <marker
       inkscape:stockid="Arrow1Mend"
       orient="auto"
       refY="0"
       refX="0"
       id="Arrow1Mend-36-0"
       style="overflow:visible"
       inkscape:isstock="true">
      <path
         inkscape:connector-curvature="0"
         id="path12275-06-6"
         d="M 0,0 5,-5 -12.5,0 5,5 Z"
         style="fill:#ffa000;fill-opacity:1;fill-rule:evenodd;stroke:#ffa000;stroke-width:1pt;stroke-opacity:1"
         transform="matrix(-0.4,0,0,-0.4,-4,0)" />
    </marker>
    <marker
       inkscape:stockid="Arrow1Mstart"
       orient="auto"
       refY="0"
       refX="0"
       id="marker13084-8"
       style="overflow:visible"
       inkscape:isstock="true">
      <path
         id="path13086-9"
         d="M 0,0 5,-5 -12.5,0 5,5 Z"
         style="fill:#00b4e1;fill-opacity:1;fill-rule:evenodd;stroke:#00b4e1;stroke-width:1pt;stroke-opacity:1"
         transform="matrix(0.4,0,0,0.4,4,0)" />
    </marker>
    <marker
       inkscape:stockid="Arrow1Mstart"
       orient="auto"
       refY="0"
       refX="0"
       id="marker13084-3-2"
       style="overflow:visible"
       inkscape:isstock="true">
      <path
         inkscape:connector-curvature="0"
         id="path13086-6-6"
         d="M 0,0 5,-5 -12.5,0 5,5 Z"
         style="fill:#007ee1;fill-opacity:1;fill-rule:evenodd;stroke:#007ee1;stroke-width:1pt;stroke-opacity:1"
         transform="matrix(0.4,0,0,0.4,4,0)" />
    </marker>
    <g
       id="g6601">
      <symbol
         overflow="visible"
         id="symbol2856">
        <path
           style="stroke:none"
           d=""
           id="path5516" />
      </symbol>
      <symbol
         overflow="visible"
         id="symbol1873">
        <path
           style="stroke:none"
           d="m 4.75,-2.359375 c 0,-1.5625 -0.921875,-2.046875 -1.65625,-2.046875 -1.375,0 -2.6875,1.421875 -2.6875,2.828125 0,0.9375 0.59375,1.6875 1.625,1.6875 0.625,0 1.34375,-0.234375 2.09375,-0.84375 0.125,0.53125 0.453125,0.84375 0.90625,0.84375 0.53125,0 0.84375,-0.546875 0.84375,-0.703125 0,-0.078125 -0.0625,-0.109375 -0.125,-0.109375 -0.0625,0 -0.09375,0.03125 -0.125,0.109375 -0.1875,0.484375 -0.546875,0.484375 -0.5625,0.484375 -0.3125,0 -0.3125,-0.78125 -0.3125,-1.015625 0,-0.203125 0,-0.234375 0.109375,-0.34375 C 5.796875,-2.65625 6,-3.8125 6,-3.8125 6,-3.84375 5.984375,-3.921875 5.875,-3.921875 c -0.09375,0 -0.09375,0.03125 -0.140625,0.21875 -0.1875,0.625 -0.515625,1.375 -0.984375,1.96875 z m -0.65625,1.375 c -0.890625,0.765625 -1.65625,0.875 -2.046875,0.875 -0.59375,0 -0.90625,-0.453125 -0.90625,-1.09375 0,-0.484375 0.265625,-1.5625 0.578125,-2.0625 C 2.1875,-4 2.734375,-4.1875 3.078125,-4.1875 c 0.984375,0 0.984375,1.3125 0.984375,2.078125 0,0.375 0,0.953125 0.03125,1.125 z m 0,0"
           id="path2126" />
      </symbol>
      <symbol
         overflow="visible"
         id="symbol3268">
        <path
           style="stroke:none"
           d="m 1.90625,-0.53125 c 0,-0.28125 -0.234375,-0.53125 -0.515625,-0.53125 -0.296875,0 -0.53125,0.25 -0.53125,0.53125 C 0.859375,-0.234375 1.09375,0 1.390625,0 1.671875,0 1.90625,-0.234375 1.90625,-0.53125 Z m 0,0"
           id="path3308" />
      </symbol>
      <symbol
         overflow="visible"
         id="symbol2786">
        <path
           style="stroke:none"
           d=""
           id="path6814" />
      </symbol>
      <symbol
         overflow="visible"
         id="symbol9262">
        <path
           style="stroke:none"
           d="m 1.640625,-1.40625 c 0,-0.046875 0.171875,-0.671875 0.171875,-0.703125 0.015625,-0.0625 0.21875,-0.40625 0.453125,-0.578125 0.0625,-0.046875 0.25,-0.1875 0.5625,-0.1875 0.0625,0 0.234375,0 0.375,0.09375 -0.21875,0.0625 -0.296875,0.265625 -0.296875,0.390625 0,0.140625 0.109375,0.25 0.265625,0.25 0.171875,0 0.390625,-0.125 0.390625,-0.421875 0,-0.359375 -0.375,-0.515625 -0.734375,-0.515625 -0.359375,0 -0.671875,0.15625 -0.984375,0.5 -0.125,-0.421875 -0.546875,-0.5 -0.71875,-0.5 -0.25,0 -0.421875,0.171875 -0.546875,0.359375 -0.15625,0.265625 -0.25,0.671875 -0.25,0.71875 0,0.078125 0.09375,0.078125 0.125,0.078125 0.09375,0 0.09375,-0.015625 0.140625,-0.203125 0.109375,-0.421875 0.25,-0.75 0.515625,-0.75 0.1875,0 0.234375,0.15625 0.234375,0.34375 0,0.125 -0.0625,0.390625 -0.125,0.578125 -0.046875,0.1875 -0.109375,0.46875 -0.140625,0.625 L 0.84375,-0.4375 C 0.828125,-0.34375 0.78125,-0.171875 0.78125,-0.15625 0.78125,0 0.90625,0.0625 1.015625,0.0625 1.125,0.0625 1.265625,0 1.3125,-0.125 1.328125,-0.171875 1.40625,-0.484375 1.453125,-0.65625 Z m 0,0"
           id="path7893" />
      </symbol>
      <symbol
         overflow="visible"
         id="symbol2366">
        <path
           style="stroke:none"
           d=""
           id="path65" />
      </symbol>
      <symbol
         overflow="visible"
         id="symbol8660">
        <path
           style="stroke:none"
           d="m 6.84375,-3.265625 c 0.15625,0 0.34375,0 0.34375,-0.1875 C 7.1875,-3.65625 7,-3.65625 6.859375,-3.65625 h -5.96875 c -0.140625,0 -0.328125,0 -0.328125,0.203125 0,0.1875 0.1875,0.1875 0.328125,0.1875 z m 0.015625,1.9375 c 0.140625,0 0.328125,0 0.328125,-0.203125 0,-0.1875 -0.1875,-0.1875 -0.34375,-0.1875 H 0.890625 c -0.140625,0 -0.328125,0 -0.328125,0.1875 0,0.203125 0.1875,0.203125 0.328125,0.203125 z m 0,0"
           id="path8794" />
      </symbol>
      <symbol
         overflow="visible"
         id="symbol58">
        <path
           style="stroke:none"
           d="m 1.265625,-0.765625 1.0625,-1.03125 c 1.546875,-1.375 2.140625,-1.90625 2.140625,-2.90625 0,-1.140625 -0.890625,-1.9375 -2.109375,-1.9375 -1.125,0 -1.859375,0.921875 -1.859375,1.8125 0,0.546875 0.5,0.546875 0.53125,0.546875 0.171875,0 0.515625,-0.109375 0.515625,-0.53125 0,-0.25 -0.1875,-0.515625 -0.53125,-0.515625 -0.078125,0 -0.09375,0 -0.125,0.015625 0.21875,-0.65625 0.765625,-1.015625 1.34375,-1.015625 0.90625,0 1.328125,0.8125 1.328125,1.625 C 3.5625,-3.90625 3.078125,-3.125 2.515625,-2.5 l -1.90625,2.125 C 0.5,-0.265625 0.5,-0.234375 0.5,0 H 4.203125 L 4.46875,-1.734375 H 4.234375 C 4.171875,-1.4375 4.109375,-1 4,-0.84375 3.9375,-0.765625 3.28125,-0.765625 3.0625,-0.765625 Z m 0,0"
           id="path2197" />
      </symbol>
      <symbol
         overflow="visible"
         id="symbol8903">
        <path
           style="stroke:none"
           d="m 4.75,-6.078125 c 0.078125,-0.109375 0.078125,-0.125 0.078125,-0.34375 H 2.40625 c -1.203125,0 -1.234375,-0.125 -1.265625,-0.3125 h -0.25 L 0.5625,-4.6875 h 0.25 c 0.03125,-0.15625 0.109375,-0.78125 0.25,-0.90625 0.0625,-0.0625 0.84375,-0.0625 0.96875,-0.0625 h 2.0625 C 3.984375,-5.5 3.203125,-4.40625 2.984375,-4.078125 2.078125,-2.734375 1.75,-1.34375 1.75,-0.328125 c 0,0.09375 0,0.546875 0.46875,0.546875 0.453125,0 0.453125,-0.453125 0.453125,-0.546875 V -0.84375 c 0,-0.546875 0.03125,-1.09375 0.109375,-1.625 0.046875,-0.234375 0.171875,-1.09375 0.625,-1.703125 z m 0,0"
           id="path4547" />
      </symbol>
    </g>
    <g
       id="g9733">
      <symbol
         overflow="visible"
         id="symbol2461">
        <path
           style="stroke:none"
           d=""
           id="path6598" />
      </symbol>
      <symbol
         overflow="visible"
         id="symbol3277">
        <path
           style="stroke:none"
           d="m 4.75,-2.359375 c 0,-1.5625 -0.921875,-2.046875 -1.65625,-2.046875 -1.375,0 -2.6875,1.421875 -2.6875,2.828125 0,0.9375 0.59375,1.6875 1.625,1.6875 0.625,0 1.34375,-0.234375 2.09375,-0.84375 0.125,0.53125 0.453125,0.84375 0.90625,0.84375 0.53125,0 0.84375,-0.546875 0.84375,-0.703125 0,-0.078125 -0.0625,-0.109375 -0.125,-0.109375 -0.0625,0 -0.09375,0.03125 -0.125,0.109375 -0.1875,0.484375 -0.546875,0.484375 -0.5625,0.484375 -0.3125,0 -0.3125,-0.78125 -0.3125,-1.015625 0,-0.203125 0,-0.234375 0.109375,-0.34375 C 5.796875,-2.65625 6,-3.8125 6,-3.8125 6,-3.84375 5.984375,-3.921875 5.875,-3.921875 c -0.09375,0 -0.09375,0.03125 -0.140625,0.21875 -0.1875,0.625 -0.515625,1.375 -0.984375,1.96875 z m -0.65625,1.375 c -0.890625,0.765625 -1.65625,0.875 -2.046875,0.875 -0.59375,0 -0.90625,-0.453125 -0.90625,-1.09375 0,-0.484375 0.265625,-1.5625 0.578125,-2.0625 C 2.1875,-4 2.734375,-4.1875 3.078125,-4.1875 c 0.984375,0 0.984375,1.3125 0.984375,2.078125 0,0.375 0,0.953125 0.03125,1.125 z m 0,0"
           id="path278" />
      </symbol>
      <symbol
         overflow="visible"
         id="symbol6491">
        <path
           style="stroke:none"
           d="m 1.90625,-0.53125 c 0,-0.28125 -0.234375,-0.53125 -0.515625,-0.53125 -0.296875,0 -0.53125,0.25 -0.53125,0.53125 C 0.859375,-0.234375 1.09375,0 1.390625,0 1.671875,0 1.90625,-0.234375 1.90625,-0.53125 Z m 0,0"
           id="path1375" />
      </symbol>
      <symbol
         overflow="visible"
         id="symbol3658">
        <path
           style="stroke:none"
           d=""
           id="path9283" />
      </symbol>
      <symbol
         overflow="visible"
         id="symbol2775">
        <path
           style="stroke:none"
           d="m 0.515625,0.84375 c -0.046875,0.203125 -0.0625,0.25 -0.328125,0.25 -0.09375,0 -0.1875,0 -0.1875,0.15625 0,0.078125 0.0625,0.109375 0.09375,0.109375 0.171875,0 0.40625,-0.03125 0.59375,-0.03125 0.234375,0 0.5,0.03125 0.734375,0.03125 0.0625,0 0.140625,-0.03125 0.140625,-0.15625 0,-0.109375 -0.09375,-0.109375 -0.1875,-0.109375 -0.15625,0 -0.34375,0 -0.34375,-0.078125 0,-0.03125 0.0625,-0.21875 0.078125,-0.3125 0.09375,-0.375 0.1875,-0.75 0.265625,-1.046875 0.078125,0.140625 0.296875,0.40625 0.71875,0.40625 0.84375,0 1.78125,-0.9375 1.78125,-1.96875 0,-0.8125 -0.5625,-1.171875 -1.03125,-1.171875 -0.4375,0 -0.8125,0.296875 -1,0.5 -0.109375,-0.40625 -0.5,-0.5 -0.71875,-0.5 -0.265625,0 -0.4375,0.1875 -0.546875,0.375 -0.140625,0.234375 -0.25,0.65625 -0.25,0.703125 0,0.078125 0.09375,0.078125 0.125,0.078125 0.09375,0 0.09375,-0.015625 0.140625,-0.203125 0.109375,-0.40625 0.25,-0.75 0.515625,-0.75 0.1875,0 0.234375,0.15625 0.234375,0.34375 0,0.078125 -0.015625,0.15625 -0.03125,0.203125 z M 1.84375,-2.234375 C 2.25,-2.78125 2.59375,-2.875 2.8125,-2.875 c 0.28125,0 0.515625,0.203125 0.515625,0.671875 0,0.28125 -0.15625,1 -0.359375,1.40625 -0.1875,0.34375 -0.515625,0.671875 -0.875,0.671875 -0.5,0 -0.625,-0.53125 -0.625,-0.609375 0,-0.03125 0.015625,-0.078125 0.015625,-0.109375 z m 0,0"
           id="path9597" />
      </symbol>
      <symbol
         overflow="visible"
         id="symbol1532">
        <path
           style="stroke:none"
           d=""
           id="path5828" />
      </symbol>
      <symbol
         overflow="visible"
         id="symbol5907">
        <path
           style="stroke:none"
           d="m 6.84375,-3.265625 c 0.15625,0 0.34375,0 0.34375,-0.1875 C 7.1875,-3.65625 7,-3.65625 6.859375,-3.65625 h -5.96875 c -0.140625,0 -0.328125,0 -0.328125,0.203125 0,0.1875 0.1875,0.1875 0.328125,0.1875 z m 0.015625,1.9375 c 0.140625,0 0.328125,0 0.328125,-0.203125 0,-0.1875 -0.1875,-0.1875 -0.34375,-0.1875 H 0.890625 c -0.140625,0 -0.328125,0 -0.328125,0.1875 0,0.203125 0.1875,0.203125 0.328125,0.203125 z m 0,0"
           id="path7034" />
      </symbol>
      <symbol
         overflow="visible"
         id="symbol6678">
        <path
           style="stroke:none"
           d="m 1.265625,-0.765625 1.0625,-1.03125 c 1.546875,-1.375 2.140625,-1.90625 2.140625,-2.90625 0,-1.140625 -0.890625,-1.9375 -2.109375,-1.9375 -1.125,0 -1.859375,0.921875 -1.859375,1.8125 0,0.546875 0.5,0.546875 0.53125,0.546875 0.171875,0 0.515625,-0.109375 0.515625,-0.53125 0,-0.25 -0.1875,-0.515625 -0.53125,-0.515625 -0.078125,0 -0.09375,0 -0.125,0.015625 0.21875,-0.65625 0.765625,-1.015625 1.34375,-1.015625 0.90625,0 1.328125,0.8125 1.328125,1.625 C 3.5625,-3.90625 3.078125,-3.125 2.515625,-2.5 l -1.90625,2.125 C 0.5,-0.265625 0.5,-0.234375 0.5,0 H 4.203125 L 4.46875,-1.734375 H 4.234375 C 4.171875,-1.4375 4.109375,-1 4,-0.84375 3.9375,-0.765625 3.28125,-0.765625 3.0625,-0.765625 Z m 0,0"
           id="path9856" />
      </symbol>
      <symbol
         overflow="visible"
         id="symbol2009">
        <path
           style="stroke:none"
           d="m 4.75,-6.078125 c 0.078125,-0.109375 0.078125,-0.125 0.078125,-0.34375 H 2.40625 c -1.203125,0 -1.234375,-0.125 -1.265625,-0.3125 h -0.25 L 0.5625,-4.6875 h 0.25 c 0.03125,-0.15625 0.109375,-0.78125 0.25,-0.90625 0.0625,-0.0625 0.84375,-0.0625 0.96875,-0.0625 h 2.0625 C 3.984375,-5.5 3.203125,-4.40625 2.984375,-4.078125 2.078125,-2.734375 1.75,-1.34375 1.75,-0.328125 c 0,0.09375 0,0.546875 0.46875,0.546875 0.453125,0 0.453125,-0.453125 0.453125,-0.546875 V -0.84375 c 0,-0.546875 0.03125,-1.09375 0.109375,-1.625 0.046875,-0.234375 0.171875,-1.09375 0.625,-1.703125 z m 0,0"
           id="path1692" />
      </symbol>
      <symbol
         overflow="visible"
         id="symbol5791">
        <path
           style="stroke:none"
           d=""
           id="path1271" />
      </symbol>
      <symbol
         overflow="visible"
         id="symbol71253">
        <path
           style="stroke:none"
           d="m 6.5625,-2.296875 c 0.171875,0 0.359375,0 0.359375,-0.203125 0,-0.1875 -0.1875,-0.1875 -0.359375,-0.1875 H 1.171875 c -0.171875,0 -0.34375,0 -0.34375,0.1875 0,0.203125 0.171875,0.203125 0.34375,0.203125 z m 0,0"
           id="path2436" />
      </symbol>
    </g>
    <g
       id="g5905">
      <symbol
         overflow="visible"
         id="symbol9622">
        <path
           style="stroke:none"
           d=""
           id="path71694" />
      </symbol>
      <symbol
         overflow="visible"
         id="symbol308">
        <path
           style="stroke:none"
           d="m 4.53125,-4.984375 c 0,-0.65625 -0.171875,-2.046875 -1.1875,-2.046875 -1.390625,0 -2.921875,2.8125 -2.921875,5.09375 0,0.9375 0.28125,2.046875 1.1875,2.046875 1.40625,0 2.921875,-2.859375 2.921875,-5.09375 z M 1.46875,-3.625 C 1.640625,-4.25 1.84375,-5.046875 2.25,-5.765625 2.515625,-6.25 2.875,-6.8125 3.328125,-6.8125 c 0.484375,0 0.546875,0.640625 0.546875,1.203125 0,0.5 -0.078125,1 -0.3125,1.984375 z m 2,0.328125 C 3.359375,-2.84375 3.15625,-2 2.765625,-1.28125 c -0.34375,0.6875 -0.71875,1.171875 -1.15625,1.171875 -0.328125,0 -0.53125,-0.296875 -0.53125,-1.21875 0,-0.421875 0.0625,-1 0.3125,-1.96875 z m 0,0"
           id="path8807" />
      </symbol>
      <symbol
         overflow="visible"
         id="symbol1997">
        <path
           style="stroke:none"
           d="m 1.90625,-0.53125 c 0,-0.28125 -0.234375,-0.53125 -0.515625,-0.53125 -0.296875,0 -0.53125,0.25 -0.53125,0.53125 C 0.859375,-0.234375 1.09375,0 1.390625,0 1.671875,0 1.90625,-0.234375 1.90625,-0.53125 Z m 0,0"
           id="path3199" />
      </symbol>
      <symbol
         overflow="visible"
         id="symbol7129">
        <path
           style="stroke:none"
           d=""
           id="path2499" />
      </symbol>
      <symbol
         overflow="visible"
         id="symbol6818">
        <path
           style="stroke:none"
           d="m 1.640625,-1.40625 c 0,-0.046875 0.171875,-0.671875 0.171875,-0.703125 0.015625,-0.0625 0.21875,-0.40625 0.453125,-0.578125 0.0625,-0.046875 0.25,-0.1875 0.5625,-0.1875 0.0625,0 0.234375,0 0.375,0.09375 -0.21875,0.0625 -0.296875,0.265625 -0.296875,0.390625 0,0.140625 0.109375,0.25 0.265625,0.25 0.171875,0 0.390625,-0.125 0.390625,-0.421875 0,-0.359375 -0.375,-0.515625 -0.734375,-0.515625 -0.359375,0 -0.671875,0.15625 -0.984375,0.5 -0.125,-0.421875 -0.546875,-0.5 -0.71875,-0.5 -0.25,0 -0.421875,0.171875 -0.546875,0.359375 -0.15625,0.265625 -0.25,0.671875 -0.25,0.71875 0,0.078125 0.09375,0.078125 0.125,0.078125 0.09375,0 0.09375,-0.015625 0.140625,-0.203125 0.109375,-0.421875 0.25,-0.75 0.515625,-0.75 0.1875,0 0.234375,0.15625 0.234375,0.34375 0,0.125 -0.0625,0.390625 -0.125,0.578125 -0.046875,0.1875 -0.109375,0.46875 -0.140625,0.625 L 0.84375,-0.4375 C 0.828125,-0.34375 0.78125,-0.171875 0.78125,-0.15625 0.78125,0 0.90625,0.0625 1.015625,0.0625 1.125,0.0625 1.265625,0 1.3125,-0.125 1.328125,-0.171875 1.40625,-0.484375 1.453125,-0.65625 Z m 0,0"
           id="path2048" />
      </symbol>
      <symbol
         overflow="visible"
         id="symbol5730">
        <path
           style="stroke:none"
           d=""
           id="path5584" />
      </symbol>
      <symbol
         overflow="visible"
         id="symbol4040">
        <path
           style="stroke:none"
           d="m 6.84375,-3.265625 c 0.15625,0 0.34375,0 0.34375,-0.1875 C 7.1875,-3.65625 7,-3.65625 6.859375,-3.65625 h -5.96875 c -0.140625,0 -0.328125,0 -0.328125,0.203125 0,0.1875 0.1875,0.1875 0.328125,0.1875 z m 0.015625,1.9375 c 0.140625,0 0.328125,0 0.328125,-0.203125 0,-0.1875 -0.1875,-0.1875 -0.34375,-0.1875 H 0.890625 c -0.140625,0 -0.328125,0 -0.328125,0.1875 0,0.203125 0.1875,0.203125 0.328125,0.203125 z m 0,0"
           id="path4536" />
      </symbol>
      <symbol
         overflow="visible"
         id="symbol3587">
        <path
           style="stroke:none"
           d="m 2.9375,-1.640625 v 0.859375 c 0,0.359375 -0.03125,0.46875 -0.765625,0.46875 H 1.96875 V 0 C 2.375,-0.03125 2.890625,-0.03125 3.3125,-0.03125 c 0.421875,0 0.9375,0 1.359375,0.03125 v -0.3125 h -0.21875 c -0.734375,0 -0.75,-0.109375 -0.75,-0.46875 V -1.640625 H 4.6875 v -0.3125 H 3.703125 v -4.53125 c 0,-0.203125 0,-0.265625 -0.171875,-0.265625 -0.078125,0 -0.109375,0 -0.1875,0.125 l -3.0625,4.671875 v 0.3125 z m 0.046875,-0.3125 H 0.5625 l 2.421875,-3.71875 z m 0,0"
           id="path5522" />
      </symbol>
      <symbol
         overflow="visible"
         id="symbol7599">
        <path
           style="stroke:none"
           d="m 4.75,-6.078125 c 0.078125,-0.109375 0.078125,-0.125 0.078125,-0.34375 H 2.40625 c -1.203125,0 -1.234375,-0.125 -1.265625,-0.3125 h -0.25 L 0.5625,-4.6875 h 0.25 c 0.03125,-0.15625 0.109375,-0.78125 0.25,-0.90625 0.0625,-0.0625 0.84375,-0.0625 0.96875,-0.0625 h 2.0625 C 3.984375,-5.5 3.203125,-4.40625 2.984375,-4.078125 2.078125,-2.734375 1.75,-1.34375 1.75,-0.328125 c 0,0.09375 0,0.546875 0.46875,0.546875 0.453125,0 0.453125,-0.453125 0.453125,-0.546875 V -0.84375 c 0,-0.546875 0.03125,-1.09375 0.109375,-1.625 0.046875,-0.234375 0.171875,-1.09375 0.625,-1.703125 z m 0,0"
           id="path3014" />
      </symbol>
    </g>
    <g
       id="g6002">
      <symbol
         overflow="visible"
         id="symbol6526">
        <path
           style="stroke:none"
           d=""
           id="path9943" />
      </symbol>
      <symbol
         overflow="visible"
         id="symbol1047">
        <path
           style="stroke:none"
           d="m 4.53125,-4.984375 c 0,-0.65625 -0.171875,-2.046875 -1.1875,-2.046875 -1.390625,0 -2.921875,2.8125 -2.921875,5.09375 0,0.9375 0.28125,2.046875 1.1875,2.046875 1.40625,0 2.921875,-2.859375 2.921875,-5.09375 z M 1.46875,-3.625 C 1.640625,-4.25 1.84375,-5.046875 2.25,-5.765625 2.515625,-6.25 2.875,-6.8125 3.328125,-6.8125 c 0.484375,0 0.546875,0.640625 0.546875,1.203125 0,0.5 -0.078125,1 -0.3125,1.984375 z m 2,0.328125 C 3.359375,-2.84375 3.15625,-2 2.765625,-1.28125 c -0.34375,0.6875 -0.71875,1.171875 -1.15625,1.171875 -0.328125,0 -0.53125,-0.296875 -0.53125,-1.21875 0,-0.421875 0.0625,-1 0.3125,-1.96875 z m 0,0"
           id="path3684" />
      </symbol>
      <symbol
         overflow="visible"
         id="symbol1118">
        <path
           style="stroke:none"
           d="m 1.90625,-0.53125 c 0,-0.28125 -0.234375,-0.53125 -0.515625,-0.53125 -0.296875,0 -0.53125,0.25 -0.53125,0.53125 C 0.859375,-0.234375 1.09375,0 1.390625,0 1.671875,0 1.90625,-0.234375 1.90625,-0.53125 Z m 0,0"
           id="path3160" />
      </symbol>
      <symbol
         overflow="visible"
         id="symbol3667">
        <path
           style="stroke:none"
           d=""
           id="path8315" />
      </symbol>
      <symbol
         overflow="visible"
         id="symbol9814">
        <path
           style="stroke:none"
           d="m 0.515625,0.84375 c -0.046875,0.203125 -0.0625,0.25 -0.328125,0.25 -0.09375,0 -0.1875,0 -0.1875,0.15625 0,0.078125 0.0625,0.109375 0.09375,0.109375 0.171875,0 0.40625,-0.03125 0.59375,-0.03125 0.234375,0 0.5,0.03125 0.734375,0.03125 0.0625,0 0.140625,-0.03125 0.140625,-0.15625 0,-0.109375 -0.09375,-0.109375 -0.1875,-0.109375 -0.15625,0 -0.34375,0 -0.34375,-0.078125 0,-0.03125 0.0625,-0.21875 0.078125,-0.3125 0.09375,-0.375 0.1875,-0.75 0.265625,-1.046875 0.078125,0.140625 0.296875,0.40625 0.71875,0.40625 0.84375,0 1.78125,-0.9375 1.78125,-1.96875 0,-0.8125 -0.5625,-1.171875 -1.03125,-1.171875 -0.4375,0 -0.8125,0.296875 -1,0.5 -0.109375,-0.40625 -0.5,-0.5 -0.71875,-0.5 -0.265625,0 -0.4375,0.1875 -0.546875,0.375 -0.140625,0.234375 -0.25,0.65625 -0.25,0.703125 0,0.078125 0.09375,0.078125 0.125,0.078125 0.09375,0 0.09375,-0.015625 0.140625,-0.203125 0.109375,-0.40625 0.25,-0.75 0.515625,-0.75 0.1875,0 0.234375,0.15625 0.234375,0.34375 0,0.078125 -0.015625,0.15625 -0.03125,0.203125 z M 1.84375,-2.234375 C 2.25,-2.78125 2.59375,-2.875 2.8125,-2.875 c 0.28125,0 0.515625,0.203125 0.515625,0.671875 0,0.28125 -0.15625,1 -0.359375,1.40625 -0.1875,0.34375 -0.515625,0.671875 -0.875,0.671875 -0.5,0 -0.625,-0.53125 -0.625,-0.609375 0,-0.03125 0.015625,-0.078125 0.015625,-0.109375 z m 0,0"
           id="path4741" />
      </symbol>
      <symbol
         overflow="visible"
         id="symbol3989">
        <path
           style="stroke:none"
           d=""
           id="path5490" />
      </symbol>
      <symbol
         overflow="visible"
         id="symbol9600">
        <path
           style="stroke:none"
           d="m 6.84375,-3.265625 c 0.15625,0 0.34375,0 0.34375,-0.1875 C 7.1875,-3.65625 7,-3.65625 6.859375,-3.65625 h -5.96875 c -0.140625,0 -0.328125,0 -0.328125,0.203125 0,0.1875 0.1875,0.1875 0.328125,0.1875 z m 0.015625,1.9375 c 0.140625,0 0.328125,0 0.328125,-0.203125 0,-0.1875 -0.1875,-0.1875 -0.34375,-0.1875 H 0.890625 c -0.140625,0 -0.328125,0 -0.328125,0.1875 0,0.203125 0.1875,0.203125 0.328125,0.203125 z m 0,0"
           id="path5282" />
      </symbol>
      <symbol
         overflow="visible"
         id="symbol5258">
        <path
           style="stroke:none"
           d="m 2.890625,-3.515625 c 0.8125,-0.265625 1.390625,-0.953125 1.390625,-1.75 0,-0.8125 -0.875,-1.375 -1.828125,-1.375 -1,0 -1.765625,0.59375 -1.765625,1.359375 0,0.328125 0.21875,0.515625 0.515625,0.515625 0.296875,0 0.5,-0.21875 0.5,-0.515625 0,-0.484375 -0.46875,-0.484375 -0.609375,-0.484375 0.296875,-0.5 0.953125,-0.625 1.3125,-0.625 0.421875,0 0.96875,0.21875 0.96875,1.109375 0,0.125 -0.03125,0.703125 -0.28125,1.140625 C 2.796875,-3.65625 2.453125,-3.625 2.203125,-3.625 2.125,-3.609375 1.890625,-3.59375 1.8125,-3.59375 c -0.078125,0.015625 -0.140625,0.03125 -0.140625,0.125 0,0.109375 0.0625,0.109375 0.234375,0.109375 h 0.4375 c 0.8125,0 1.1875,0.671875 1.1875,1.65625 0,1.359375 -0.6875,1.640625 -1.125,1.640625 -0.4375,0 -1.1875,-0.171875 -1.53125,-0.75 0.34375,0.046875 0.65625,-0.171875 0.65625,-0.546875 0,-0.359375 -0.265625,-0.5625 -0.546875,-0.5625 -0.25,0 -0.5625,0.140625 -0.5625,0.578125 0,0.90625 0.921875,1.5625 2.015625,1.5625 1.21875,0 2.125,-0.90625 2.125,-1.921875 0,-0.8125 -0.640625,-1.59375 -1.671875,-1.8125 z m 0,0"
           id="path1542" />
      </symbol>
      <symbol
         overflow="visible"
         id="symbol8064">
        <path
           style="stroke:none"
           d="m 3.65625,-3.171875 v 0.328125 c 0,2.328125 -1.03125,2.78125 -1.609375,2.78125 -0.171875,0 -0.71875,-0.015625 -0.984375,-0.359375 0.4375,0 0.515625,-0.28125 0.515625,-0.453125 0,-0.3125 -0.234375,-0.453125 -0.453125,-0.453125 -0.15625,0 -0.453125,0.078125 -0.453125,0.46875 0,0.671875 0.53125,1.078125 1.375,1.078125 1.296875,0 2.515625,-1.359375 2.515625,-3.5 0,-2.6875 -1.15625,-3.359375 -2.046875,-3.359375 -0.546875,0 -1.03125,0.1875 -1.453125,0.625 -0.421875,0.453125 -0.640625,0.875 -0.640625,1.625 0,1.234375 0.875,2.21875 1.984375,2.21875 0.609375,0 1.015625,-0.421875 1.25,-1 z M 2.421875,-2.40625 c -0.15625,0 -0.625,0 -0.921875,-0.625 -0.1875,-0.375 -0.1875,-0.859375 -0.1875,-1.359375 0,-0.53125 0,-1 0.21875,-1.375 0.265625,-0.5 0.640625,-0.625 0.984375,-0.625 0.46875,0 0.796875,0.34375 0.96875,0.78125 0.109375,0.328125 0.15625,0.953125 0.15625,1.40625 0,0.828125 -0.34375,1.796875 -1.21875,1.796875 z m 0,0"
           id="path734" />
      </symbol>
    </g>
    <g
       id="g4962">
      <symbol
         overflow="visible"
         id="symbol997">
        <path
           style="stroke:none"
           d=""
           id="path6727" />
      </symbol>
      <symbol
         overflow="visible"
         id="symbol3888">
        <path
           style="stroke:none"
           d="m 4.75,-2.359375 c 0,-1.5625 -0.921875,-2.046875 -1.65625,-2.046875 -1.375,0 -2.6875,1.421875 -2.6875,2.828125 0,0.9375 0.59375,1.6875 1.625,1.6875 0.625,0 1.34375,-0.234375 2.09375,-0.84375 0.125,0.53125 0.453125,0.84375 0.90625,0.84375 0.53125,0 0.84375,-0.546875 0.84375,-0.703125 0,-0.078125 -0.0625,-0.109375 -0.125,-0.109375 -0.0625,0 -0.09375,0.03125 -0.125,0.109375 -0.1875,0.484375 -0.546875,0.484375 -0.5625,0.484375 -0.3125,0 -0.3125,-0.78125 -0.3125,-1.015625 0,-0.203125 0,-0.234375 0.109375,-0.34375 C 5.796875,-2.65625 6,-3.8125 6,-3.8125 6,-3.84375 5.984375,-3.921875 5.875,-3.921875 c -0.09375,0 -0.09375,0.03125 -0.140625,0.21875 -0.1875,0.625 -0.515625,1.375 -0.984375,1.96875 z m -0.65625,1.375 c -0.890625,0.765625 -1.65625,0.875 -2.046875,0.875 -0.59375,0 -0.90625,-0.453125 -0.90625,-1.09375 0,-0.484375 0.265625,-1.5625 0.578125,-2.0625 C 2.1875,-4 2.734375,-4.1875 3.078125,-4.1875 c 0.984375,0 0.984375,1.3125 0.984375,2.078125 0,0.375 0,0.953125 0.03125,1.125 z m 0,0"
           id="path4911" />
      </symbol>
      <symbol
         overflow="visible"
         id="symbol8554">
        <path
           style="stroke:none"
           d="m 1.90625,-0.53125 c 0,-0.28125 -0.234375,-0.53125 -0.515625,-0.53125 -0.296875,0 -0.53125,0.25 -0.53125,0.53125 C 0.859375,-0.234375 1.09375,0 1.390625,0 1.671875,0 1.90625,-0.234375 1.90625,-0.53125 Z m 0,0"
           id="path5797" />
      </symbol>
      <symbol
         overflow="visible"
         id="symbol3670">
        <path
           style="stroke:none"
           d=""
           id="path5326" />
      </symbol>
      <symbol
         overflow="visible"
         id="symbol6699">
        <path
           style="stroke:none"
           d="m 0.515625,0.84375 c -0.046875,0.203125 -0.0625,0.25 -0.328125,0.25 -0.09375,0 -0.1875,0 -0.1875,0.15625 0,0.078125 0.0625,0.109375 0.09375,0.109375 0.171875,0 0.40625,-0.03125 0.59375,-0.03125 0.234375,0 0.5,0.03125 0.734375,0.03125 0.0625,0 0.140625,-0.03125 0.140625,-0.15625 0,-0.109375 -0.09375,-0.109375 -0.1875,-0.109375 -0.15625,0 -0.34375,0 -0.34375,-0.078125 0,-0.03125 0.0625,-0.21875 0.078125,-0.3125 0.09375,-0.375 0.1875,-0.75 0.265625,-1.046875 0.078125,0.140625 0.296875,0.40625 0.71875,0.40625 0.84375,0 1.78125,-0.9375 1.78125,-1.96875 0,-0.8125 -0.5625,-1.171875 -1.03125,-1.171875 -0.4375,0 -0.8125,0.296875 -1,0.5 -0.109375,-0.40625 -0.5,-0.5 -0.71875,-0.5 -0.265625,0 -0.4375,0.1875 -0.546875,0.375 -0.140625,0.234375 -0.25,0.65625 -0.25,0.703125 0,0.078125 0.09375,0.078125 0.125,0.078125 0.09375,0 0.09375,-0.015625 0.140625,-0.203125 0.109375,-0.40625 0.25,-0.75 0.515625,-0.75 0.1875,0 0.234375,0.15625 0.234375,0.34375 0,0.078125 -0.015625,0.15625 -0.03125,0.203125 z M 1.84375,-2.234375 C 2.25,-2.78125 2.59375,-2.875 2.8125,-2.875 c 0.28125,0 0.515625,0.203125 0.515625,0.671875 0,0.28125 -0.15625,1 -0.359375,1.40625 -0.1875,0.34375 -0.515625,0.671875 -0.875,0.671875 -0.5,0 -0.625,-0.53125 -0.625,-0.609375 0,-0.03125 0.015625,-0.078125 0.015625,-0.109375 z m 0,0"
           id="path5624" />
      </symbol>
      <symbol
         overflow="visible"
         id="symbol4227">
        <path
           style="stroke:none"
           d=""
           id="path1836" />
      </symbol>
      <symbol
         overflow="visible"
         id="symbol7740">
        <path
           style="stroke:none"
           d="m 6.84375,-3.265625 c 0.15625,0 0.34375,0 0.34375,-0.1875 C 7.1875,-3.65625 7,-3.65625 6.859375,-3.65625 h -5.96875 c -0.140625,0 -0.328125,0 -0.328125,0.203125 0,0.1875 0.1875,0.1875 0.328125,0.1875 z m 0.015625,1.9375 c 0.140625,0 0.328125,0 0.328125,-0.203125 0,-0.1875 -0.1875,-0.1875 -0.34375,-0.1875 H 0.890625 c -0.140625,0 -0.328125,0 -0.328125,0.1875 0,0.203125 0.1875,0.203125 0.328125,0.203125 z m 0,0"
           id="path3360" />
      </symbol>
      <symbol
         overflow="visible"
         id="symbol6291">
        <path
           style="stroke:none"
           d="m 1.265625,-0.765625 1.0625,-1.03125 c 1.546875,-1.375 2.140625,-1.90625 2.140625,-2.90625 0,-1.140625 -0.890625,-1.9375 -2.109375,-1.9375 -1.125,0 -1.859375,0.921875 -1.859375,1.8125 0,0.546875 0.5,0.546875 0.53125,0.546875 0.171875,0 0.515625,-0.109375 0.515625,-0.53125 0,-0.25 -0.1875,-0.515625 -0.53125,-0.515625 -0.078125,0 -0.09375,0 -0.125,0.015625 0.21875,-0.65625 0.765625,-1.015625 1.34375,-1.015625 0.90625,0 1.328125,0.8125 1.328125,1.625 C 3.5625,-3.90625 3.078125,-3.125 2.515625,-2.5 l -1.90625,2.125 C 0.5,-0.265625 0.5,-0.234375 0.5,0 H 4.203125 L 4.46875,-1.734375 H 4.234375 C 4.171875,-1.4375 4.109375,-1 4,-0.84375 3.9375,-0.765625 3.28125,-0.765625 3.0625,-0.765625 Z m 0,0"
           id="path9248" />
      </symbol>
      <symbol
         overflow="visible"
         id="symbol1566">
        <path
           style="stroke:none"
           d="m 4.75,-6.078125 c 0.078125,-0.109375 0.078125,-0.125 0.078125,-0.34375 H 2.40625 c -1.203125,0 -1.234375,-0.125 -1.265625,-0.3125 h -0.25 L 0.5625,-4.6875 h 0.25 c 0.03125,-0.15625 0.109375,-0.78125 0.25,-0.90625 0.0625,-0.0625 0.84375,-0.0625 0.96875,-0.0625 h 2.0625 C 3.984375,-5.5 3.203125,-4.40625 2.984375,-4.078125 2.078125,-2.734375 1.75,-1.34375 1.75,-0.328125 c 0,0.09375 0,0.546875 0.46875,0.546875 0.453125,0 0.453125,-0.453125 0.453125,-0.546875 V -0.84375 c 0,-0.546875 0.03125,-1.09375 0.109375,-1.625 0.046875,-0.234375 0.171875,-1.09375 0.625,-1.703125 z m 0,0"
           id="path8523" />
      </symbol>
      <symbol
         overflow="visible"
         id="symbol9994">
        <path
           style="stroke:none"
           d=""
           id="path5744" />
      </symbol>
      <symbol
         overflow="visible"
         id="symbol6100">
        <path
           style="stroke:none"
           d="m 6.5625,-2.296875 c 0.171875,0 0.359375,0 0.359375,-0.203125 0,-0.1875 -0.1875,-0.1875 -0.359375,-0.1875 H 1.171875 c -0.171875,0 -0.34375,0 -0.34375,0.1875 0,0.203125 0.171875,0.203125 0.34375,0.203125 z m 0,0"
           id="path472" />
      </symbol>
    </g>
    <g
       id="g2275">
      <symbol
         overflow="visible"
         id="symbol6367">
        <path
           style="stroke:none"
           d=""
           id="path6991" />
      </symbol>
      <symbol
         overflow="visible"
         id="symbol7400">
        <path
           style="stroke:none"
           d="m 2.859375,-6.8125 c 0,0 0,-0.109375 -0.125,-0.109375 -0.234375,0 -0.953125,0.078125 -1.21875,0.109375 -0.078125,0 -0.1875,0.015625 -0.1875,0.1875 0,0.125 0.09375,0.125 0.234375,0.125 0.484375,0 0.5,0.0625 0.5,0.171875 L 2.03125,-6.125 0.59375,-0.390625 c -0.046875,0.140625 -0.046875,0.15625 -0.046875,0.21875 0,0.234375 0.203125,0.28125 0.296875,0.28125 0.15625,0 0.3125,-0.125 0.359375,-0.265625 l 0.1875,-0.75 0.21875,-0.890625 C 1.671875,-2.03125 1.734375,-2.25 1.78125,-2.46875 1.796875,-2.53125 1.890625,-2.859375 1.890625,-2.921875 1.921875,-3.015625 2.234375,-3.5625 2.578125,-3.84375 2.796875,-4 3.09375,-4.1875 3.53125,-4.1875 c 0.421875,0 0.53125,0.34375 0.53125,0.703125 0,0.53125 -0.375,1.625 -0.609375,2.234375 C 3.375,-1.03125 3.3125,-0.90625 3.3125,-0.703125 c 0,0.46875 0.359375,0.8125 0.828125,0.8125 0.9375,0 1.296875,-1.453125 1.296875,-1.53125 0,-0.109375 -0.078125,-0.109375 -0.109375,-0.109375 -0.109375,0 -0.109375,0.03125 -0.15625,0.1875 -0.140625,0.53125 -0.46875,1.234375 -1.015625,1.234375 -0.171875,0 -0.234375,-0.09375 -0.234375,-0.328125 0,-0.25 0.078125,-0.484375 0.171875,-0.703125 0.15625,-0.4375 0.609375,-1.625 0.609375,-2.203125 0,-0.640625 -0.390625,-1.0625 -1.140625,-1.0625 -0.625,0 -1.109375,0.3125 -1.484375,0.765625 z m 0,0"
           id="path9552" />
      </symbol>
      <symbol
         overflow="visible"
         id="symbol5272">
        <path
           style="stroke:none"
           d=""
           id="path509" />
      </symbol>
      <symbol
         overflow="visible"
         id="symbol4560">
        <path
           style="stroke:none"
           d="m 0.515625,0.84375 c -0.046875,0.203125 -0.0625,0.25 -0.328125,0.25 -0.09375,0 -0.1875,0 -0.1875,0.15625 0,0.078125 0.0625,0.109375 0.09375,0.109375 0.171875,0 0.40625,-0.03125 0.59375,-0.03125 0.234375,0 0.5,0.03125 0.734375,0.03125 0.0625,0 0.140625,-0.03125 0.140625,-0.15625 0,-0.109375 -0.09375,-0.109375 -0.1875,-0.109375 -0.15625,0 -0.34375,0 -0.34375,-0.078125 0,-0.03125 0.0625,-0.21875 0.078125,-0.3125 0.09375,-0.375 0.1875,-0.75 0.265625,-1.046875 0.078125,0.140625 0.296875,0.40625 0.71875,0.40625 0.84375,0 1.78125,-0.9375 1.78125,-1.96875 0,-0.8125 -0.5625,-1.171875 -1.03125,-1.171875 -0.4375,0 -0.8125,0.296875 -1,0.5 -0.109375,-0.40625 -0.5,-0.5 -0.71875,-0.5 -0.265625,0 -0.4375,0.1875 -0.546875,0.375 -0.140625,0.234375 -0.25,0.65625 -0.25,0.703125 0,0.078125 0.09375,0.078125 0.125,0.078125 0.09375,0 0.09375,-0.015625 0.140625,-0.203125 0.109375,-0.40625 0.25,-0.75 0.515625,-0.75 0.1875,0 0.234375,0.15625 0.234375,0.34375 0,0.078125 -0.015625,0.15625 -0.03125,0.203125 z M 1.84375,-2.234375 C 2.25,-2.78125 2.59375,-2.875 2.8125,-2.875 c 0.28125,0 0.515625,0.203125 0.515625,0.671875 0,0.28125 -0.15625,1 -0.359375,1.40625 -0.1875,0.34375 -0.515625,0.671875 -0.875,0.671875 -0.5,0 -0.625,-0.53125 -0.625,-0.609375 0,-0.03125 0.015625,-0.078125 0.015625,-0.109375 z m 0,0"
           id="path3790" />
      </symbol>
    </g>
    <g
       id="g5520">
      <symbol
         overflow="visible"
         id="symbol292">
        <path
           style="stroke:none"
           d=""
           id="path9296" />
      </symbol>
      <symbol
         overflow="visible"
         id="symbol7297">
        <path
           style="stroke:none"
           d="m 2.859375,-6.8125 c 0,0 0,-0.109375 -0.125,-0.109375 -0.234375,0 -0.953125,0.078125 -1.21875,0.109375 -0.078125,0 -0.1875,0.015625 -0.1875,0.1875 0,0.125 0.09375,0.125 0.234375,0.125 0.484375,0 0.5,0.0625 0.5,0.171875 L 2.03125,-6.125 0.59375,-0.390625 c -0.046875,0.140625 -0.046875,0.15625 -0.046875,0.21875 0,0.234375 0.203125,0.28125 0.296875,0.28125 0.15625,0 0.3125,-0.125 0.359375,-0.265625 l 0.1875,-0.75 0.21875,-0.890625 C 1.671875,-2.03125 1.734375,-2.25 1.78125,-2.46875 1.796875,-2.53125 1.890625,-2.859375 1.890625,-2.921875 1.921875,-3.015625 2.234375,-3.5625 2.578125,-3.84375 2.796875,-4 3.09375,-4.1875 3.53125,-4.1875 c 0.421875,0 0.53125,0.34375 0.53125,0.703125 0,0.53125 -0.375,1.625 -0.609375,2.234375 C 3.375,-1.03125 3.3125,-0.90625 3.3125,-0.703125 c 0,0.46875 0.359375,0.8125 0.828125,0.8125 0.9375,0 1.296875,-1.453125 1.296875,-1.53125 0,-0.109375 -0.078125,-0.109375 -0.109375,-0.109375 -0.109375,0 -0.109375,0.03125 -0.15625,0.1875 -0.140625,0.53125 -0.46875,1.234375 -1.015625,1.234375 -0.171875,0 -0.234375,-0.09375 -0.234375,-0.328125 0,-0.25 0.078125,-0.484375 0.171875,-0.703125 0.15625,-0.4375 0.609375,-1.625 0.609375,-2.203125 0,-0.640625 -0.390625,-1.0625 -1.140625,-1.0625 -0.625,0 -1.109375,0.3125 -1.484375,0.765625 z m 0,0"
           id="path6606" />
      </symbol>
      <symbol
         overflow="visible"
         id="symbol2113">
        <path
           style="stroke:none"
           d=""
           id="path8754" />
      </symbol>
      <symbol
         overflow="visible"
         id="symbol2205">
        <path
           style="stroke:none"
           d="m 1.640625,-1.40625 c 0,-0.046875 0.171875,-0.671875 0.171875,-0.703125 0.015625,-0.0625 0.21875,-0.40625 0.453125,-0.578125 0.0625,-0.046875 0.25,-0.1875 0.5625,-0.1875 0.0625,0 0.234375,0 0.375,0.09375 -0.21875,0.0625 -0.296875,0.265625 -0.296875,0.390625 0,0.140625 0.109375,0.25 0.265625,0.25 0.171875,0 0.390625,-0.125 0.390625,-0.421875 0,-0.359375 -0.375,-0.515625 -0.734375,-0.515625 -0.359375,0 -0.671875,0.15625 -0.984375,0.5 -0.125,-0.421875 -0.546875,-0.5 -0.71875,-0.5 -0.25,0 -0.421875,0.171875 -0.546875,0.359375 -0.15625,0.265625 -0.25,0.671875 -0.25,0.71875 0,0.078125 0.09375,0.078125 0.125,0.078125 0.09375,0 0.09375,-0.015625 0.140625,-0.203125 0.109375,-0.421875 0.25,-0.75 0.515625,-0.75 0.1875,0 0.234375,0.15625 0.234375,0.34375 0,0.125 -0.0625,0.390625 -0.125,0.578125 -0.046875,0.1875 -0.109375,0.46875 -0.140625,0.625 L 0.84375,-0.4375 C 0.828125,-0.34375 0.78125,-0.171875 0.78125,-0.15625 0.78125,0 0.90625,0.0625 1.015625,0.0625 1.125,0.0625 1.265625,0 1.3125,-0.125 1.328125,-0.171875 1.40625,-0.484375 1.453125,-0.65625 Z m 0,0"
           id="path5582" />
      </symbol>
    </g>
    <g
       id="g4694">
      <symbol
         overflow="visible"
         id="symbol7308">
        <path
           style="stroke:none"
           d=""
           id="path7296" />
      </symbol>
      <symbol
         overflow="visible"
         id="symbol8967">
        <path
           style="stroke:none"
           d="m 5.140625,-6.8125 c 0,0 0,-0.109375 -0.125,-0.109375 -0.15625,0 -1.09375,0.09375 -1.265625,0.109375 -0.078125,0.015625 -0.140625,0.0625 -0.140625,0.1875 0,0.125 0.09375,0.125 0.234375,0.125 0.484375,0 0.5,0.0625 0.5,0.171875 L 4.3125,-6.125 3.71875,-3.765625 C 3.53125,-4.140625 3.25,-4.40625 2.796875,-4.40625 c -1.15625,0 -2.390625,1.46875 -2.390625,2.921875 0,0.9375 0.546875,1.59375 1.3125,1.59375 0.203125,0 0.703125,-0.046875 1.296875,-0.75 0.078125,0.421875 0.4375,0.75 0.90625,0.75 0.359375,0 0.578125,-0.234375 0.75,-0.546875 0.15625,-0.359375 0.296875,-0.96875 0.296875,-0.984375 0,-0.109375 -0.09375,-0.109375 -0.125,-0.109375 -0.09375,0 -0.109375,0.046875 -0.140625,0.1875 -0.171875,0.640625 -0.34375,1.234375 -0.75,1.234375 -0.28125,0 -0.296875,-0.265625 -0.296875,-0.453125 0,-0.25 0.015625,-0.3125 0.046875,-0.484375 z m -2.0625,5.625 C 3.015625,-1 3.015625,-0.984375 2.875,-0.8125 2.4375,-0.265625 2.03125,-0.109375 1.75,-0.109375 c -0.5,0 -0.640625,-0.546875 -0.640625,-0.9375 0,-0.5 0.3125,-1.71875 0.546875,-2.1875 0.3125,-0.578125 0.75,-0.953125 1.15625,-0.953125 0.640625,0 0.78125,0.8125 0.78125,0.875 0,0.0625 -0.015625,0.125 -0.03125,0.171875 z m 0,0"
           id="path9632" />
      </symbol>
      <symbol
         overflow="visible"
         id="symbol1021">
        <path
           style="stroke:none"
           d=""
           id="path4395" />
      </symbol>
      <symbol
         overflow="visible"
         id="symbol4973">
        <path
           style="stroke:none"
           d="m 1.640625,-1.40625 c 0,-0.046875 0.171875,-0.671875 0.171875,-0.703125 0.015625,-0.0625 0.21875,-0.40625 0.453125,-0.578125 0.0625,-0.046875 0.25,-0.1875 0.5625,-0.1875 0.0625,0 0.234375,0 0.375,0.09375 -0.21875,0.0625 -0.296875,0.265625 -0.296875,0.390625 0,0.140625 0.109375,0.25 0.265625,0.25 0.171875,0 0.390625,-0.125 0.390625,-0.421875 0,-0.359375 -0.375,-0.515625 -0.734375,-0.515625 -0.359375,0 -0.671875,0.15625 -0.984375,0.5 -0.125,-0.421875 -0.546875,-0.5 -0.71875,-0.5 -0.25,0 -0.421875,0.171875 -0.546875,0.359375 -0.15625,0.265625 -0.25,0.671875 -0.25,0.71875 0,0.078125 0.09375,0.078125 0.125,0.078125 0.09375,0 0.09375,-0.015625 0.140625,-0.203125 0.109375,-0.421875 0.25,-0.75 0.515625,-0.75 0.1875,0 0.234375,0.15625 0.234375,0.34375 0,0.125 -0.0625,0.390625 -0.125,0.578125 -0.046875,0.1875 -0.109375,0.46875 -0.140625,0.625 L 0.84375,-0.4375 C 0.828125,-0.34375 0.78125,-0.171875 0.78125,-0.15625 0.78125,0 0.90625,0.0625 1.015625,0.0625 1.125,0.0625 1.265625,0 1.3125,-0.125 1.328125,-0.171875 1.40625,-0.484375 1.453125,-0.65625 Z m 0,0"
           id="path7752" />
      </symbol>
    </g>
    <g
       id="g7">
      <symbol
         overflow="visible"
         id="symbol3295">
        <path
           style="stroke:none"
           d=""
           id="path581" />
      </symbol>
      <symbol
         overflow="visible"
         id="symbol3015">
        <path
           style="stroke:none"
           d="m 4.84375,-3.796875 c 0.046875,-0.140625 0.046875,-0.15625 0.046875,-0.234375 0,-0.171875 -0.140625,-0.265625 -0.296875,-0.265625 -0.09375,0 -0.25,0.0625 -0.34375,0.203125 -0.015625,0.0625 -0.109375,0.359375 -0.140625,0.546875 -0.078125,0.25 -0.140625,0.53125 -0.203125,0.796875 l -0.453125,1.796875 c -0.03125,0.140625 -0.46875,0.84375 -1.125,0.84375 -0.5,0 -0.609375,-0.4375 -0.609375,-0.8125 C 1.71875,-1.375 1.890625,-2 2.21875,-2.875 2.375,-3.28125 2.421875,-3.390625 2.421875,-3.59375 c 0,-0.4375 -0.3125,-0.8125 -0.8125,-0.8125 -0.953125,0 -1.3125,1.453125 -1.3125,1.53125 0,0.109375 0.09375,0.109375 0.109375,0.109375 0.109375,0 0.109375,-0.03125 0.15625,-0.1875 0.28125,-0.9375 0.671875,-1.234375 1.015625,-1.234375 0.078125,0 0.25,0 0.25,0.3125 0,0.25 -0.109375,0.515625 -0.171875,0.703125 -0.40625,1.0625 -0.578125,1.625 -0.578125,2.09375 0,0.890625 0.625,1.1875 1.21875,1.1875 0.390625,0 0.71875,-0.171875 1,-0.453125 -0.125,0.515625 -0.25,1.015625 -0.640625,1.546875 -0.265625,0.328125 -0.640625,0.625 -1.09375,0.625 -0.140625,0 -0.59375,-0.03125 -0.765625,-0.421875 0.15625,0 0.296875,0 0.421875,-0.125 C 1.328125,1.203125 1.421875,1.0625 1.421875,0.875 1.421875,0.5625 1.15625,0.53125 1.0625,0.53125 0.828125,0.53125 0.5,0.6875 0.5,1.171875 c 0,0.5 0.4375,0.875 1.0625,0.875 1.015625,0 2.046875,-0.90625 2.328125,-2.03125 z m 0,0"
           id="path7761" />
      </symbol>
      <symbol
         overflow="visible"
         id="symbol9246">
        <path
           style="stroke:none"
           d=""
           id="path517" />
      </symbol>
      <symbol
         overflow="visible"
         id="symbol648">
        <path
           style="stroke:none"
           d="m 1.640625,-1.40625 c 0,-0.046875 0.171875,-0.671875 0.171875,-0.703125 0.015625,-0.0625 0.21875,-0.40625 0.453125,-0.578125 0.0625,-0.046875 0.25,-0.1875 0.5625,-0.1875 0.0625,0 0.234375,0 0.375,0.09375 -0.21875,0.0625 -0.296875,0.265625 -0.296875,0.390625 0,0.140625 0.109375,0.25 0.265625,0.25 0.171875,0 0.390625,-0.125 0.390625,-0.421875 0,-0.359375 -0.375,-0.515625 -0.734375,-0.515625 -0.359375,0 -0.671875,0.15625 -0.984375,0.5 -0.125,-0.421875 -0.546875,-0.5 -0.71875,-0.5 -0.25,0 -0.421875,0.171875 -0.546875,0.359375 -0.15625,0.265625 -0.25,0.671875 -0.25,0.71875 0,0.078125 0.09375,0.078125 0.125,0.078125 0.09375,0 0.09375,-0.015625 0.140625,-0.203125 0.109375,-0.421875 0.25,-0.75 0.515625,-0.75 0.1875,0 0.234375,0.15625 0.234375,0.34375 0,0.125 -0.0625,0.390625 -0.125,0.578125 -0.046875,0.1875 -0.109375,0.46875 -0.140625,0.625 L 0.84375,-0.4375 C 0.828125,-0.34375 0.78125,-0.171875 0.78125,-0.15625 0.78125,0 0.90625,0.0625 1.015625,0.0625 1.125,0.0625 1.265625,0 1.3125,-0.125 1.328125,-0.171875 1.40625,-0.484375 1.453125,-0.65625 Z m 0,0"
           id="path4370" />
      </symbol>
    </g>
    <g
       id="g3606">
      <symbol
         overflow="visible"
         id="symbol5494">
        <path
           style="stroke:none"
           d=""
           id="path6155" />
      </symbol>
      <symbol
         overflow="visible"
         id="symbol9444">
        <path
           style="stroke:none"
           d="m 4.84375,-3.796875 c 0.046875,-0.140625 0.046875,-0.15625 0.046875,-0.234375 0,-0.171875 -0.140625,-0.265625 -0.296875,-0.265625 -0.09375,0 -0.25,0.0625 -0.34375,0.203125 -0.015625,0.0625 -0.109375,0.359375 -0.140625,0.546875 -0.078125,0.25 -0.140625,0.53125 -0.203125,0.796875 l -0.453125,1.796875 c -0.03125,0.140625 -0.46875,0.84375 -1.125,0.84375 -0.5,0 -0.609375,-0.4375 -0.609375,-0.8125 C 1.71875,-1.375 1.890625,-2 2.21875,-2.875 2.375,-3.28125 2.421875,-3.390625 2.421875,-3.59375 c 0,-0.4375 -0.3125,-0.8125 -0.8125,-0.8125 -0.953125,0 -1.3125,1.453125 -1.3125,1.53125 0,0.109375 0.09375,0.109375 0.109375,0.109375 0.109375,0 0.109375,-0.03125 0.15625,-0.1875 0.28125,-0.9375 0.671875,-1.234375 1.015625,-1.234375 0.078125,0 0.25,0 0.25,0.3125 0,0.25 -0.109375,0.515625 -0.171875,0.703125 -0.40625,1.0625 -0.578125,1.625 -0.578125,2.09375 0,0.890625 0.625,1.1875 1.21875,1.1875 0.390625,0 0.71875,-0.171875 1,-0.453125 -0.125,0.515625 -0.25,1.015625 -0.640625,1.546875 -0.265625,0.328125 -0.640625,0.625 -1.09375,0.625 -0.140625,0 -0.59375,-0.03125 -0.765625,-0.421875 0.15625,0 0.296875,0 0.421875,-0.125 C 1.328125,1.203125 1.421875,1.0625 1.421875,0.875 1.421875,0.5625 1.15625,0.53125 1.0625,0.53125 0.828125,0.53125 0.5,0.6875 0.5,1.171875 c 0,0.5 0.4375,0.875 1.0625,0.875 1.015625,0 2.046875,-0.90625 2.328125,-2.03125 z m 0,0"
           id="path4811" />
      </symbol>
      <symbol
         overflow="visible"
         id="symbol3242">
        <path
           style="stroke:none"
           d=""
           id="path7095" />
      </symbol>
      <symbol
         overflow="visible"
         id="symbol5288">
        <path
           style="stroke:none"
           d="m 0.515625,0.84375 c -0.046875,0.203125 -0.0625,0.25 -0.328125,0.25 -0.09375,0 -0.1875,0 -0.1875,0.15625 0,0.078125 0.0625,0.109375 0.09375,0.109375 0.171875,0 0.40625,-0.03125 0.59375,-0.03125 0.234375,0 0.5,0.03125 0.734375,0.03125 0.0625,0 0.140625,-0.03125 0.140625,-0.15625 0,-0.109375 -0.09375,-0.109375 -0.1875,-0.109375 -0.15625,0 -0.34375,0 -0.34375,-0.078125 0,-0.03125 0.0625,-0.21875 0.078125,-0.3125 0.09375,-0.375 0.1875,-0.75 0.265625,-1.046875 0.078125,0.140625 0.296875,0.40625 0.71875,0.40625 0.84375,0 1.78125,-0.9375 1.78125,-1.96875 0,-0.8125 -0.5625,-1.171875 -1.03125,-1.171875 -0.4375,0 -0.8125,0.296875 -1,0.5 -0.109375,-0.40625 -0.5,-0.5 -0.71875,-0.5 -0.265625,0 -0.4375,0.1875 -0.546875,0.375 -0.140625,0.234375 -0.25,0.65625 -0.25,0.703125 0,0.078125 0.09375,0.078125 0.125,0.078125 0.09375,0 0.09375,-0.015625 0.140625,-0.203125 0.109375,-0.40625 0.25,-0.75 0.515625,-0.75 0.1875,0 0.234375,0.15625 0.234375,0.34375 0,0.078125 -0.015625,0.15625 -0.03125,0.203125 z M 1.84375,-2.234375 C 2.25,-2.78125 2.59375,-2.875 2.8125,-2.875 c 0.28125,0 0.515625,0.203125 0.515625,0.671875 0,0.28125 -0.15625,1 -0.359375,1.40625 -0.1875,0.34375 -0.515625,0.671875 -0.875,0.671875 -0.5,0 -0.625,-0.53125 -0.625,-0.609375 0,-0.03125 0.015625,-0.078125 0.015625,-0.109375 z m 0,0"
           id="path3325" />
      </symbol>
    </g>
    <g
       id="g3175">
      <symbol
         overflow="visible"
         id="symbol6602">
        <path
           style="stroke:none"
           d=""
           id="path2067" />
      </symbol>
      <symbol
         overflow="visible"
         id="symbol4900">
        <path
           style="stroke:none"
           d="m 4.53125,-4.984375 c 0,-0.65625 -0.171875,-2.046875 -1.1875,-2.046875 -1.390625,0 -2.921875,2.8125 -2.921875,5.09375 0,0.9375 0.28125,2.046875 1.1875,2.046875 1.40625,0 2.921875,-2.859375 2.921875,-5.09375 z M 1.46875,-3.625 C 1.640625,-4.25 1.84375,-5.046875 2.25,-5.765625 2.515625,-6.25 2.875,-6.8125 3.328125,-6.8125 c 0.484375,0 0.546875,0.640625 0.546875,1.203125 0,0.5 -0.078125,1 -0.3125,1.984375 z m 2,0.328125 C 3.359375,-2.84375 3.15625,-2 2.765625,-1.28125 c -0.34375,0.6875 -0.71875,1.171875 -1.15625,1.171875 -0.328125,0 -0.53125,-0.296875 -0.53125,-1.21875 0,-0.421875 0.0625,-1 0.3125,-1.96875 z m 0,0"
           id="path3112" />
      </symbol>
      <symbol
         overflow="visible"
         id="symbol8568">
        <path
           style="stroke:none"
           d="m 1.90625,-0.53125 c 0,-0.28125 -0.234375,-0.53125 -0.515625,-0.53125 -0.296875,0 -0.53125,0.25 -0.53125,0.53125 C 0.859375,-0.234375 1.09375,0 1.390625,0 1.671875,0 1.90625,-0.234375 1.90625,-0.53125 Z m 0,0"
           id="path6979" />
      </symbol>
      <symbol
         overflow="visible"
         id="symbol2150">
        <path
           style="stroke:none"
           d=""
           id="path4631" />
      </symbol>
      <symbol
         overflow="visible"
         id="symbol2998">
        <path
           style="stroke:none"
           d="m 0.515625,0.84375 c -0.046875,0.203125 -0.0625,0.25 -0.328125,0.25 -0.09375,0 -0.1875,0 -0.1875,0.15625 0,0.078125 0.0625,0.109375 0.09375,0.109375 0.171875,0 0.40625,-0.03125 0.59375,-0.03125 0.234375,0 0.5,0.03125 0.734375,0.03125 0.0625,0 0.140625,-0.03125 0.140625,-0.15625 0,-0.109375 -0.09375,-0.109375 -0.1875,-0.109375 -0.15625,0 -0.34375,0 -0.34375,-0.078125 0,-0.03125 0.0625,-0.21875 0.078125,-0.3125 0.09375,-0.375 0.1875,-0.75 0.265625,-1.046875 0.078125,0.140625 0.296875,0.40625 0.71875,0.40625 0.84375,0 1.78125,-0.9375 1.78125,-1.96875 0,-0.8125 -0.5625,-1.171875 -1.03125,-1.171875 -0.4375,0 -0.8125,0.296875 -1,0.5 -0.109375,-0.40625 -0.5,-0.5 -0.71875,-0.5 -0.265625,0 -0.4375,0.1875 -0.546875,0.375 -0.140625,0.234375 -0.25,0.65625 -0.25,0.703125 0,0.078125 0.09375,0.078125 0.125,0.078125 0.09375,0 0.09375,-0.015625 0.140625,-0.203125 0.109375,-0.40625 0.25,-0.75 0.515625,-0.75 0.1875,0 0.234375,0.15625 0.234375,0.34375 0,0.078125 -0.015625,0.15625 -0.03125,0.203125 z M 1.84375,-2.234375 C 2.25,-2.78125 2.59375,-2.875 2.8125,-2.875 c 0.28125,0 0.515625,0.203125 0.515625,0.671875 0,0.28125 -0.15625,1 -0.359375,1.40625 -0.1875,0.34375 -0.515625,0.671875 -0.875,0.671875 -0.5,0 -0.625,-0.53125 -0.625,-0.609375 0,-0.03125 0.015625,-0.078125 0.015625,-0.109375 z m 0,0"
           id="path5418" />
      </symbol>
      <symbol
         overflow="visible"
         id="symbol7590">
        <path
           style="stroke:none"
           d=""
           id="path4515" />
      </symbol>
      <symbol
         overflow="visible"
         id="symbol1442">
        <path
           style="stroke:none"
           d="m 6.84375,-3.265625 c 0.15625,0 0.34375,0 0.34375,-0.1875 C 7.1875,-3.65625 7,-3.65625 6.859375,-3.65625 h -5.96875 c -0.140625,0 -0.328125,0 -0.328125,0.203125 0,0.1875 0.1875,0.1875 0.328125,0.1875 z m 0.015625,1.9375 c 0.140625,0 0.328125,0 0.328125,-0.203125 0,-0.1875 -0.1875,-0.1875 -0.34375,-0.1875 H 0.890625 c -0.140625,0 -0.328125,0 -0.328125,0.1875 0,0.203125 0.1875,0.203125 0.328125,0.203125 z m 0,0"
           id="path8253" />
      </symbol>
      <symbol
         overflow="visible"
         id="symbol8076">
        <path
           style="stroke:none"
           d="m 2.890625,-3.515625 c 0.8125,-0.265625 1.390625,-0.953125 1.390625,-1.75 0,-0.8125 -0.875,-1.375 -1.828125,-1.375 -1,0 -1.765625,0.59375 -1.765625,1.359375 0,0.328125 0.21875,0.515625 0.515625,0.515625 0.296875,0 0.5,-0.21875 0.5,-0.515625 0,-0.484375 -0.46875,-0.484375 -0.609375,-0.484375 0.296875,-0.5 0.953125,-0.625 1.3125,-0.625 0.421875,0 0.96875,0.21875 0.96875,1.109375 0,0.125 -0.03125,0.703125 -0.28125,1.140625 C 2.796875,-3.65625 2.453125,-3.625 2.203125,-3.625 2.125,-3.609375 1.890625,-3.59375 1.8125,-3.59375 c -0.078125,0.015625 -0.140625,0.03125 -0.140625,0.125 0,0.109375 0.0625,0.109375 0.234375,0.109375 h 0.4375 c 0.8125,0 1.1875,0.671875 1.1875,1.65625 0,1.359375 -0.6875,1.640625 -1.125,1.640625 -0.4375,0 -1.1875,-0.171875 -1.53125,-0.75 0.34375,0.046875 0.65625,-0.171875 0.65625,-0.546875 0,-0.359375 -0.265625,-0.5625 -0.546875,-0.5625 -0.25,0 -0.5625,0.140625 -0.5625,0.578125 0,0.90625 0.921875,1.5625 2.015625,1.5625 1.21875,0 2.125,-0.90625 2.125,-1.921875 0,-0.8125 -0.640625,-1.59375 -1.671875,-1.8125 z m 0,0"
           id="path2690" />
      </symbol>
      <symbol
         overflow="visible"
         id="symbol9000">
        <path
           style="stroke:none"
           d="m 3.65625,-3.171875 v 0.328125 c 0,2.328125 -1.03125,2.78125 -1.609375,2.78125 -0.171875,0 -0.71875,-0.015625 -0.984375,-0.359375 0.4375,0 0.515625,-0.28125 0.515625,-0.453125 0,-0.3125 -0.234375,-0.453125 -0.453125,-0.453125 -0.15625,0 -0.453125,0.078125 -0.453125,0.46875 0,0.671875 0.53125,1.078125 1.375,1.078125 1.296875,0 2.515625,-1.359375 2.515625,-3.5 0,-2.6875 -1.15625,-3.359375 -2.046875,-3.359375 -0.546875,0 -1.03125,0.1875 -1.453125,0.625 -0.421875,0.453125 -0.640625,0.875 -0.640625,1.625 0,1.234375 0.875,2.21875 1.984375,2.21875 0.609375,0 1.015625,-0.421875 1.25,-1 z M 2.421875,-2.40625 c -0.15625,0 -0.625,0 -0.921875,-0.625 -0.1875,-0.375 -0.1875,-0.859375 -0.1875,-1.359375 0,-0.53125 0,-1 0.21875,-1.375 0.265625,-0.5 0.640625,-0.625 0.984375,-0.625 0.46875,0 0.796875,0.34375 0.96875,0.78125 0.109375,0.328125 0.15625,0.953125 0.15625,1.40625 0,0.828125 -0.34375,1.796875 -1.21875,1.796875 z m 0,0"
           id="path4823" />
      </symbol>
    </g>
    <g
       id="g3389">
      <symbol
         overflow="visible"
         id="symbol9059">
        <path
           style="stroke:none;"
           d=""
           id="path2337" />
      </symbol>
      <symbol
         overflow="visible"
         id="symbol1049">
        <path
           style="stroke:none;"
           d="M 3.328125 -3.015625 C 3.390625 -3.265625 3.625 -4.1875 4.3125 -4.1875 C 4.359375 -4.1875 4.609375 -4.1875 4.8125 -4.0625 C 4.53125 -4 4.34375 -3.765625 4.34375 -3.515625 C 4.34375 -3.359375 4.453125 -3.171875 4.71875 -3.171875 C 4.9375 -3.171875 5.25 -3.34375 5.25 -3.75 C 5.25 -4.265625 4.671875 -4.40625 4.328125 -4.40625 C 3.75 -4.40625 3.40625 -3.875 3.28125 -3.65625 C 3.03125 -4.3125 2.5 -4.40625 2.203125 -4.40625 C 1.171875 -4.40625 0.59375 -3.125 0.59375 -2.875 C 0.59375 -2.765625 0.703125 -2.765625 0.71875 -2.765625 C 0.796875 -2.765625 0.828125 -2.796875 0.84375 -2.875 C 1.1875 -3.9375 1.84375 -4.1875 2.1875 -4.1875 C 2.375 -4.1875 2.71875 -4.09375 2.71875 -3.515625 C 2.71875 -3.203125 2.546875 -2.546875 2.1875 -1.140625 C 2.03125 -0.53125 1.671875 -0.109375 1.234375 -0.109375 C 1.171875 -0.109375 0.953125 -0.109375 0.734375 -0.234375 C 0.984375 -0.296875 1.203125 -0.5 1.203125 -0.78125 C 1.203125 -1.046875 0.984375 -1.125 0.84375 -1.125 C 0.53125 -1.125 0.296875 -0.875 0.296875 -0.546875 C 0.296875 -0.09375 0.78125 0.109375 1.21875 0.109375 C 1.890625 0.109375 2.25 -0.59375 2.265625 -0.640625 C 2.390625 -0.28125 2.75 0.109375 3.34375 0.109375 C 4.375 0.109375 4.9375 -1.171875 4.9375 -1.421875 C 4.9375 -1.53125 4.859375 -1.53125 4.828125 -1.53125 C 4.734375 -1.53125 4.71875 -1.484375 4.6875 -1.421875 C 4.359375 -0.34375 3.6875 -0.109375 3.375 -0.109375 C 2.984375 -0.109375 2.828125 -0.421875 2.828125 -0.765625 C 2.828125 -0.984375 2.875 -1.203125 2.984375 -1.640625 Z M 3.328125 -3.015625 "
           id="path3957" />
      </symbol>
    </g>
  </defs>
  <sodipodi:namedview
     id="base"
     pagecolor="#ffffff"
     bordercolor="#666666"
     borderopacity="1.0"
     inkscape:pageopacity="0.0"
     inkscape:pageshadow="2"
     inkscape:zoom="3.9395004"
     inkscape:cx="27.160805"
     inkscape:cy="18.784108"
     inkscape:document-units="px"
     inkscape:current-layer="layer2"
     showgrid="false"
     inkscape:window-width="1920"
     inkscape:window-height="1053"
     inkscape:window-x="0"
     inkscape:window-y="27"
     inkscape:window-maximized="1"
     showguides="false"
     inkscape:pagecheckerboard="false"
     viewbox-height="1052.4622"
     scale-x="0.93749998"
     fit-margin-top="0"
     fit-margin-left="0"
     fit-margin-right="0"
     fit-margin-bottom="0"
     width="32.61864mm" />
  <metadata
     id="metadata7">
    <rdf:RDF>
      <cc:Work
         rdf:about="">
        <dc:format>image/svg+xml</dc:format>
        <dc:type
           rdf:resource="http://purl.org/dc/dcmitype/StillImage" />
      </cc:Work>
    </rdf:RDF>
  </metadata>
  <g
     inkscape:groupmode="layer"
     id="layer2"
     inkscape:label="Capa 2">
    <rect
       style="fill:#ffffff;stroke:#ff0000;stroke-width:1.03606;stroke-miterlimit:0"
       id="rect1576"
       width="764.48822"
       height="170.88943"
       x="-33.893574"
       y="-24.124828" />
    <g
       inkscape:label=""
       transform="matrix(0.8411569,0,0,0.8411569,-22.00651,-56.765024)"
       id="g71766"
       style="fill:#007ee1">
      <g
         id="g6821"
         style="fill:#007ee1">
        <g
           style="fill:#007ee1;fill-opacity:1"
           id="g3205">
          <use
             xlink:href="#symbol308"
             x="91.925003"
             y="81.962997"
             id="use5990"
             width="100%"
             height="100%"
             style="fill:#007ee1" />
        </g>
        <g
           style="fill:#007ee1;fill-opacity:1"
           id="g7757">
          <use
             xlink:href="#symbol6818"
             x="96.601997"
             y="83.457001"
             id="use7024"
             width="100%"
             height="100%"
             style="fill:#007ee1" />
        </g>
        <g
           style="fill:#007ee1;fill-opacity:1"
           id="g4555">
          <use
             xlink:href="#symbol4040"
             x="103.781"
             y="81.962997"
             id="use8879"
             width="100%"
             height="100%"
             style="fill:#007ee1" />
        </g>
        <g
           style="fill:#007ee1;fill-opacity:1"
           id="g193">
          <use
             xlink:href="#symbol3587"
             x="114.29951"
             y="81.962997"
             id="use7828"
             width="100%"
             height="100%"
             style="fill:#007ee1" />
          <use
             xlink:href="#symbol3587"
             x="119.28082"
             y="81.962997"
             id="use8153"
             width="100%"
             height="100%"
             style="fill:#007ee1" />
        </g>
        <g
           style="fill:#007ee1;fill-opacity:1"
           id="g341">
          <use
             xlink:href="#symbol1997"
             x="124.26"
             y="81.962997"
             id="use7975"
             width="100%"
             height="100%"
             style="fill:#007ee1" />
        </g>
        <g
           style="fill:#007ee1;fill-opacity:1"
           id="g6567">
          <use
             xlink:href="#symbol7599"
             x="127.027"
             y="81.962997"
             id="use1602"
             width="100%"
             height="100%"
             style="fill:#007ee1" />
        </g>
      </g>
    </g>
    <g
       inkscape:label=""
       transform="translate(-64.676129,-36.824746)"
       id="g76798"
       style="fill:#007ee1">
      <g
         id="g3047"
         style="fill:#007ee1">
        <g
           style="fill:#007ee1;fill-opacity:1"
           id="g9989">
          <use
             xlink:href="#symbol8967"
             x="91.925003"
             y="81.962997"
             id="use5093"
             width="100%"
             height="100%"
             style="fill:#007ee1" />
        </g>
        <g
           style="fill:#007ee1;fill-opacity:1"
           id="g4770">
          <use
             xlink:href="#symbol4973"
             x="97.111"
             y="83.457001"
             id="use2017"
             width="100%"
             height="100%"
             style="fill:#007ee1" />
        </g>
      </g>
    </g>
    <g
       inkscape:label=""
       transform="translate(-38.143574,-20.031079)"
       id="g77383"
       style="fill:#007ee1">
      <g
         id="g3713"
         style="fill:#007ee1">
        <g
           style="fill:#007ee1;fill-opacity:1"
           id="g4966">
          <use
             xlink:href="#symbol3015"
             x="91.925003"
             y="81.962997"
             id="use5427"
             width="100%"
             height="100%"
             style="fill:#007ee1" />
        </g>
        <g
           style="fill:#007ee1;fill-opacity:1"
           id="g1967">
          <use
             xlink:href="#symbol648"
             x="96.809998"
             y="83.457001"
             id="use1864"
             width="100%"
             height="100%"
             style="fill:#007ee1" />
        </g>
      </g>
    </g>
    <g
       inkscape:label=""
       transform="translate(-23.132282,-20.142085)"
       id="g77998"
       style="fill:#f7bd00">
      <g
         id="g3998"
         style="fill:#f7bd00">
        <g
           style="fill:#f7bd00;fill-opacity:1"
           id="g1154">
          <use
             xlink:href="#symbol9444"
             x="91.925003"
             y="81.962997"
             id="use5163"
             width="100%"
             height="100%"
             style="fill:#f7bd00" />
        </g>
        <g
           style="fill:#f7bd00;fill-opacity:1"
           id="g731">
          <use
             xlink:href="#symbol5288"
             x="96.809998"
             y="83.457001"
             id="use6807"
             width="100%"
             height="100%"
             style="fill:#f7bd00" />
        </g>
      </g>
    </g>
    <g
       inkscape:label=""
       transform="matrix(0.83219193,0,0,0.83219193,-4.8851216,-34.40868)"
       id="g80884"
       style="fill:#f7bd00">
      <g
         id="g6235"
         style="fill:#f7bd00">
        <g
           style="fill:#f7bd00;fill-opacity:1"
           id="g3018">
          <use
             xlink:href="#symbol4900"
             x="91.925003"
             y="81.962997"
             id="use4175"
             width="100%"
             height="100%"
             style="fill:#f7bd00" />
        </g>
        <g
           style="fill:#f7bd00;fill-opacity:1"
           id="g4038">
          <use
             xlink:href="#symbol2998"
             x="96.601997"
             y="83.457001"
             id="use9842"
             width="100%"
             height="100%"
             style="fill:#f7bd00" />
        </g>
        <g
           style="fill:#f7bd00;fill-opacity:1"
           id="g4154">
          <use
             xlink:href="#symbol1442"
             x="103.975"
             y="81.962997"
             id="use7027"
             width="100%"
             height="100%"
             style="fill:#f7bd00" />
        </g>
        <g
           style="fill:#f7bd00;fill-opacity:1"
           id="g1784">
          <use
             xlink:href="#symbol8076"
             x="114.49352"
             y="81.962997"
             id="use6543"
             width="100%"
             height="100%"
             style="fill:#f7bd00" />
          <use
             xlink:href="#symbol9000"
             x="119.47482"
             y="81.962997"
             id="use4910"
             width="100%"
             height="100%"
             style="fill:#f7bd00" />
        </g>
        <g
           style="fill:#f7bd00;fill-opacity:1"
           id="g9531">
          <use
             xlink:href="#symbol8568"
             x="124.453"
             y="81.962997"
             id="use8846"
             width="100%"
             height="100%"
             style="fill:#f7bd00" />
        </g>
        <g
           style="fill:#f7bd00;fill-opacity:1"
           id="g7102">
          <use
             xlink:href="#symbol8076"
             x="127.221"
             y="81.962997"
             id="use8545"
             width="100%"
             height="100%"
             style="fill:#f7bd00" />
        </g>
      </g>
    </g>
  </g>
  <g
     inkscape:label="Capa 1"
     inkscape:groupmode="layer"
     id="layer1"
     transform="translate(-4.15829, -8.65793)">
    <rect
       style="fill:none;fill-opacity:1"
       id="rect4259-9"
       width="27.281769"
       height="13.28191"
       x="591.19592"
       y="91.898666" />
    <rect
       style="opacity:0;fill:#b30000;fill-opacity:1"
       id="rect4280-0"
       width="17.410072"
       height="12.025515"
       x="573.96533"
       y="88.667923" />
    <rect
       style="opacity:0;fill:#654700;fill-opacity:1;stroke:#000000;stroke-width:2.30002;stroke-opacity:1"
       id="rect4282-4"
       width="26.025368"
       height="19.922867"
       x="568.93976"
       y="83.283371" />
    <rect
       style="opacity:0;fill:#654700;fill-opacity:1;stroke:#000000;stroke-width:2.30002;stroke-opacity:1"
       id="rect4306-8"
       width="14.358823"
       height="13.461396"
       x="565.35004"
       y="72.155289" />
    <rect
       style="opacity:0;fill:#654700;fill-opacity:1;stroke:#000000;stroke-width:2.30002;stroke-opacity:1"
       id="rect4308-7"
       width="48.640507"
       height="43.794415"
       x="546.50409"
       y="59.770809" />
    <path
       style="opacity:0;fill:#654700;fill-opacity:1;stroke:#000000;stroke-width:2.30002;stroke-opacity:1"
       id="path4314-1"
       sodipodi:type="arc"
       sodipodi:cx="571.00385"
       sodipodi:cy="70.719398"
       sodipodi:rx="8.8845224"
       sodipodi:ry="6.6409554"
       sodipodi:start="0"
       sodipodi:end="1.2470412"
       sodipodi:arc-type="slice"
       d="m 579.88837,70.719398 a 8.8845224,6.6409554 0 0 1 -6.0581,6.295942 l -2.82642,-6.295942 z" />
    <path
       style="fill:#f7bd00;fill-opacity:1;fill-rule:evenodd;stroke:#f7bd00;stroke-width:0.80625;stroke-linecap:butt;stroke-linejoin:miter;stroke-miterlimit:4;stroke-dasharray:none;stroke-dashoffset:0;stroke-opacity:1"
       d="M 70.221741,37.718637 V 84.168215"
       id="path4146-5-5"
       inkscape:connector-curvature="0"
       sodipodi:nodetypes="cc" />
    <path
       style="fill:none;fill-rule:evenodd;stroke:#00e800;stroke-width:0.80625;stroke-linecap:butt;stroke-linejoin:miter;stroke-miterlimit:4;stroke-dasharray:none;stroke-dashoffset:0;stroke-opacity:1"
       d="m 70.221741,26.88846 v 9.958768"
       id="path4146-5-6-2-88"
       inkscape:connector-curvature="0"
       sodipodi:nodetypes="cc" />
    <path
       inkscape:connector-curvature="0"
       id="path6781-3"
       d="M 15.415087,84.250975 77.165171,31.443955"
       style="fill:#f7bd00;fill-opacity:1;fill-rule:evenodd;stroke:#f7bd00;stroke-width:1.15594;stroke-linecap:butt;stroke-linejoin:miter;stroke-miterlimit:4;stroke-dasharray:none;stroke-opacity:1"
       sodipodi:nodetypes="cc" />
    <path
       inkscape:connector-curvature="0"
       id="path6781-7-9"
       d="M 15.226337,84.472995 71.913521,24.45693"
       style="fill:none;fill-rule:evenodd;stroke:#007ee1;stroke-width:1.15594;stroke-linecap:butt;stroke-linejoin:miter;stroke-miterlimit:4;stroke-dasharray:none;stroke-opacity:1"
       sodipodi:nodetypes="cc" />
    <path
       style="fill:none;fill-rule:evenodd;stroke:#007ee1;stroke-width:0.80625;stroke-linecap:butt;stroke-linejoin:miter;stroke-miterlimit:4;stroke-dasharray:none;stroke-dashoffset:0;stroke-opacity:1"
       d="M 68.803291,27.937867 V 84.211995"
       id="path4146-5-6-0"
       inkscape:connector-curvature="0"
       sodipodi:nodetypes="cc" />
    <path
       style="fill:none;fill-rule:evenodd;stroke:#000000;stroke-width:1.17871;stroke-linecap:butt;stroke-linejoin:miter;stroke-miterlimit:4;stroke-dasharray:none;stroke-opacity:1"
       d="m 70.649505,84.709815 -55.732508,0"
       id="path4146-3-3-6-0"
       inkscape:connector-curvature="0"
       sodipodi:nodetypes="cc" />
    <text
       xml:space="preserve"
       style="font-style:normal;font-weight:normal;font-size:37.5px;line-height:1.25;font-family:sans-serif;fill:#000000;fill-opacity:1;stroke:none;stroke-width:0.9375"
       x="277.4892"
       y="139.44907"
       id="text55766"><tspan
         sodipodi:role="line"
         id="tspan55764"
         style="stroke-width:0.9375"
         x="277.4892"
         y="139.44907" /></text>
    <g
       inkscape:label=""
       transform="translate(-51.248226,9.3694488)"
       id="g81597">
      <g
         id="g8759">
        <g
           style="fill:#000000;fill-opacity:1"
           id="g7166">
          <use
             xlink:href="#symbol1049"
             x="91.925003"
             y="81.962997"
             id="use4620"
             width="100%"
             height="100%" />
        </g>
      </g>
    </g>
  </g>
</svg>
